<svg id="Layer_4" data-name="Layer 4" xmlns="http://www.w3.org/2000/svg" viewBox="0 0 358.05 111.55"><defs><style>.cls-1{fill:#7b7e7d46;fill-rule:evenodd;}</style></defs><title>Artboard 3</title><path class="cls-1" d="M25.4,57.08c-.54-1.11-1.19-1.17-1.95-.2C24,58.05,24.76,57,25.4,57.08Z"/><path class="cls-1" d="M221.67,7.25c.12-.86-1.12-2.65-2.11-1.85C220.28,5.86,220.84,7.85,221.67,7.25Z"/><path class="cls-1" d="M225.58,7.65a3.08,3.08,0,0,0-3.84-1.05C222.88,8.35,224.14,8.82,225.58,7.65Z"/><path class="cls-1" d="M163.59,55.27c.5.49.95,1.43,1.53,1.14-.28-.47.25-.85.78-1.23,2,1.26,3.49,3.41,6.37,2-2.66-.34-3.46-1.81-6.3-2.6C165.07,55.76,164.35,55.32,163.59,55.27Z"/><path class="cls-1" d="M156.94,69.06c-.84-.36-1.58-1.69-2.47-1.57C154.36,68.49,155.84,70.47,156.94,69.06Z"/><path class="cls-1" d="M170.7,66.18a6.6,6.6,0,0,1-1-2.74c-.83.7-1.55.25-2.44,1.4.15.34.57.71.23,1A2.54,2.54,0,0,0,170.7,66.18Z"/><path class="cls-1" d="M170.79,75.06c1,1.34,2,2,3.12,1.63C172.86,76.24,172,74.43,170.79,75.06Z"/><path class="cls-1" d="M205,62.08c.94-1.71,1.5.33,2.31-.09a1.39,1.39,0,0,1,.13-1.31c1.23.14.78.87,1.46,1.79,1.15-1.09-.3-2.44,0-3.6-2.31-.11-2.33-2.83-4.45-4.73-2.61,3.07-4.5-1-6.87-.36.41.81,0,1.53.75,2.37,1.91-1.64,3.51,2.23,2,3.16,1.15.9.81.49,1.46,1.79C203,60.06,205,60.51,205,62.08Z"/><path class="cls-1" d="M190.51,68.51c1.77-.15,3.43.7,5.14,1.17-1-.86,2.18-1.31,1.21-2.17-1.43-1-3.26,1.86-4.56-.46C191.79,68.24,190,67.21,190.51,68.51Z"/><path class="cls-1" d="M200.86,63.64c-.88-.12-3,.26-2.15,1.75.34-.15.66,0,.95.43C200.13,65.1,201,64.42,200.86,63.64Z"/><path class="cls-1" d="M207.75,67l-.87-1.07-1.08.88A1.12,1.12,0,0,0,207.75,67Z"/><path class="cls-1" d="M256.36,31.46c-.63-1.42-1.58.45-2.31.1C254.67,33,255.62,31.1,256.36,31.46Z"/><path class="cls-1" d="M225.73,80.94c-8.69-3-17.81-1.57-26.54-4-.38.4-1.07.77-.78,1.24,4.11,2.6,8.56,1.94,12.74,3.91,5.19-1.5,10,.86,15.1.21,6.1,1.3,14.61,3.44,19.58,1.33.88,1,1.78,1.91,2.89.62-2.67-2.84-5.87-.46-8.48-3.82C235.06,84,230.88,77.67,225.73,80.94Z"/><path class="cls-1" d="M227.28,55.79c.91,1.06.8,3.69,2.34,2.87C229.1,58,228.44,56,227.28,55.79Z"/><path class="cls-1" d="M206.8,73.11c1.08,1.27,2.32.9,3.55.69C209.25,72.71,208,73.12,206.8,73.11Z"/><path class="cls-1" d="M225.16,60.51c.59,2.35,3.32,1.34,5.21.52A4.3,4.3,0,0,0,225.16,60.51Z"/><path class="cls-1" d="M231.3,74.6c1.25.59,2.45,1.68,3.83,1C235.07,73.88,232.59,74.3,231.3,74.6Z"/><path class="cls-1" d="M207.35,106.68l1.17,1.43a2.56,2.56,0,0,0,1.14-1.53C209,105.55,208.21,105.82,207.35,106.68Z"/><path class="cls-1" d="M250,71.89c.63.61.24,1.12.81,1.72.49-.5,1.43-1,1.14-1.53C251.21,72.6,250.71,71.1,250,71.89Z"/><path class="cls-1" d="M305.06,27.51c.36.58-.6,1-1.14,1.53,6,3.59,10.48,6.43,16.64,10.88A25.61,25.61,0,0,0,305.06,27.51Z"/><path class="cls-1" d="M279.79,49.93c.6.82,2.66,3.63,2.47,1.56C281.18,51.67,281.37,49.63,279.79,49.93Z"/><path class="cls-1" d="M264.13,65.1c.72-.57,1.25.61,2-.45C265.78,63.44,263.64,64.05,264.13,65.1Z"/><path class="cls-1" d="M280.62,67.75c-3.08-2.36-9.17-2.27-13.46-3.33C268.86,68,276.54,66.24,280.62,67.75Z"/><path class="cls-1" d="M263.67,69.66c2.76,3.1,8.78,13.62,13.22,15.46C272.29,80.2,270.28,72.93,263.67,69.66Z"/><path class="cls-1" d="M303.16,39.8c-.66-1-1.5-.31-2.31.1C301.66,40.84,303.07,41,303.16,39.8Z"/><path class="cls-1" d="M253.7,83.76c-.68.25-1.34.21-2,.46.21,1.15,2.75,1.66,4.13,1.4C255.13,84.77,254.34,85.07,253.7,83.76Z"/><path class="cls-1" d="M292.57,56.8a2.27,2.27,0,0,0-2.18-1.2C291.06,56.53,291.74,57.39,292.57,56.8Z"/><path class="cls-1" d="M298.39,54.44c-.67-.95-1.46-.68-2.24-.56,2.05,2.32,0,2.58-.1,4.26,1.35-.33,2.52,1,3.9.4-.36-.64.58-.89,1.07-.88C300.42,56.1,296.87,56.23,298.39,54.44Z"/><path class="cls-1" d="M312.38,59.13c-1.12.19-3.13-.62-3.39,1-2.86-1.05-5.58-2.5-7.74-1.43a52.81,52.81,0,0,1,11.61,5.44c-.33-.62,1.82-.84,1.21-2.18C312.45,61.59,311.63,60.47,312.38,59.13Z"/><path class="cls-1" d="M256.29,97.17c.93-.51,1.55,2,2.53.91C258.22,97.29,256.06,95.55,256.29,97.17Z"/><path class="cls-1" d="M297.37,67.8a16.13,16.13,0,0,0,4.42,1.76C300.39,68.24,299,67.11,297.37,67.8Z"/><path class="cls-1" d="M289.16,77.49a4.55,4.55,0,0,0,4.07,2.05C291.89,78.65,290.69,76.51,289.16,77.49Z"/><path class="cls-1" d="M264.61,105.89c1.12-.23,1.95,2.35,3.12,1.63C266.88,107,264.61,104,264.61,105.89Z"/><path class="cls-1" d="M352.78,85.23c1-.22,1.86,1.12,3,0C356.15,83.69,352.58,84,352.78,85.23Z"/><path class="cls-1" d="M341.62,95c.78,1.11,3.51-.43,3.44-1.63C344,93.36,341.9,93.05,341.62,95Z"/><path class="cls-1" d="M190.83,59.1a.35.35,0,0,0,.31-.06C191,59.07,190.93,59.08,190.83,59.1Z"/><path class="cls-1" d="M22.42,59.27a10.74,10.74,0,0,0-3.52-2.85,18.54,18.54,0,0,0,.85,3.49Z"/><path class="cls-1" d="M345,87.4c2.1-.89,6.57-3.67,8.91-3.7-.13-2.21-4.94-2.79-3.21-3.93-.59.36-1-.6-1.53-1.14a2.19,2.19,0,0,1-1.37.51c-.63,1.37,2.27,3.08-.1,4.27-3-.27-6.13-.07-8.91-2.88,2.4-1.67,2.32-1.67,3.65-3.57a13.88,13.88,0,0,0,6.05-1.36c.15-2.08-1.07-2.28-.55-4.33.92.7,2-.31,3-.68-2.09-1-1.53-1.76-2.69-2.57a3.29,3.29,0,0,1,.16,1.66c-5.31.19-8.59-4-11-8.34a12.39,12.39,0,0,1-2.53-.91c-7.86-8.82-16.5-9.86-25.49-14.41-1.85-1.31-5.4-2.86-6.51-.65,1.49-.52,4.53.56,4.65,2.77-.39-.41-.8-.77-1.3-.14,1.36,5.86,8.67,9.35,14.3,14.59,3.66-.81,5.88,4,8.78,4.17,1.18,2.31,3.57,3.27,2.79,4.89-.55.07-1.17-1.54-2.6-.27,1.42,2,7.91,3.34,6.43,7.88-3.33-1.46-7.09-4.67-11.7-7.75-2.61.87-5.22,1.79-7.71,1.52.74-1.39,1.31-1.49,2.86-2.34-3-2.93-6.24-3.25-9.23-6.19C299.46,65.59,289.6,58,278.87,59c-12.41-2.51-22.78-5.22-35.35-4.56.1-1.4-1.83-1.08-2.7-2.58,4-.56,7.79,1,11.71,1.19-.28-2.18-3.24-1.38-4.72-2.12-.28-.8,1.73-1.36,1.21-2.18-2-.75-4.18.13-6.08-1.6,1.39-.63.65-1.47,1.2-2.18,3.35,3.5,9.79.75,10.89,6,3.42-1.44,6.76.76,8.92,2.87.14-2.67,3-1.52,3.58-2.92-2.45-1.56-9.5-.78-11.81-3.5a60.32,60.32,0,0,1,10.41,1.06c-1.29-1.39-3-.7-3.35-2.64,1.77.21.44-1.06,1.5-1.82.72.46,1.29,2.46,2.11,1.85-.28-.46.25-.85.78-1.23,3.14,2.6,6.66,1.35,9.79,3.94-.55,1.29.31,1.45,1.53,1.15-1.37-1.13-.05-2,0-3,.8.75,1.79-.35,2.54.91-.47.29-1.33,0-1.08.88,2.38.34,4.65,1.67,7,2-.48.54-.62,2.73.75,2.38-.22-1.72,2-.92,2.67-.39-.92.57-2.17.49-1.5,1.82,1.85.19,2.28-.33,3.74-1.27.07-1.78-2.3-1.54-2-2.5,1.89-.3,3.59,1.35,5.56.23-1.8-1.79,1-1.08.26-2.6,2,.61,1.34,3.28,1.49,4.75,2.23-.38,1.62.66,1.76,2.15,1.84-.69.74-1.68.91-2.54,1.89-.29,3.69.34,5.56.24-.42-.6-1.06-1.21-.16-1.66-2.76-1.78-2.09-3.82-4.61-6.38q-1.47,1.62-2.6-.27c-.74.48-.46,1-1.14,1.53-1-1.19-2.16-.27-3.12-1.63-.16-1.26,1.7-.23.49-1.59-3.14-3.43-6.13-2.66-9.21-3.23-1.27-.24-2.52-1.45-3.77-1.7s-2.61.81-3.67.62c-1.5-.27-2.66-1.8-4.07-2.06-3-.54-6.05,1.42-8.88.09,5,4,10.39,3.41,15.45,6.49-1.85,2-3.44,1.49-4.92-.17-3.64.27-7.24.16-10.7-1.41.63-1.33,2.09-1.27,1.63-3.12-.7-1.18-3.35-1-5-2.48-.58-.93.45-1.7.26-2.6-1.84-.19-4,2.49-5.63.42a2.75,2.75,0,0,1-.31.59h0c-1.56-.69-3.15-1.33-4.75-1.9l6.08.33c3.32.17,4.09-5.14.79-5.84-1.46-.32-2.92-.6-4.39-.87a1.46,1.46,0,0,0,.2-1.09c-.29.32-.85.61-1.13.92-1.47-.26-2.93-.5-4.4-.72a7,7,0,0,1,.91,0c-.67-1.32-1.23-1.43-1.1-2.08A72.58,72.58,0,0,0,262,24.47c-2.68-1.63-5.59-1.07-8.19-3.46,3.52,0,1.82-3,2.47-5-12-3.45-24.71-.41-36.45-6.64C212.72,10.2,206,7.85,199,7.26c.57-.6,2.09-1.1.85-1.88-1.51-.16-.62,1.6-2.22,2.4-6.4-1.73-13.32-.4-18.8-2.55.37.73,1.28.48.88,1.07-1.9.1-2.87.19-1.53-1.14-9.08-1.32-19,1.94-27.94.13-2.53-.5-4.71-2.66-7.45-1.08-1-.39-2.13-.59-3.18-1a19.61,19.61,0,0,1-2.89.49c2.5.34,5,.74,7.51,1.22.59.11.34,1-.25.89a160.86,160.86,0,0,0-20.29-2.35,20.24,20.24,0,0,0-4.22.67c-7.35-2.08-15.32,2.05-22.81,1.32-5.45,3-10.3,0-15.91,4.63-3.86-.53-9.29,3.41-12.9,1.88A291.52,291.52,0,0,1,98.29,4.72l.75,0a.24.24,0,0,0,.23-.15c6.37-1.15,12.79-2.1,19.24-2.79.57-.06.59-.94,0-.91Q105.14,1.63,92,3.73c-11.32,0-22.11,3.45-32.76,7.42a239.72,239.72,0,0,0-32.48,12.3c-7.85,3-15.64,6.21-23.25,9.76A1.74,1.74,0,0,0,3.16,36h0a1.41,1.41,0,0,0,1.42,2.43c3.27-1.8,6.58-3.52,9.91-5.2,10.59-3.82,21-8.17,31.44-12.42a21.13,21.13,0,0,1,2,2.37c-1.27.12-1.47,1-1.44,2q-20.58,6.53-40.82,14c-1.25.46-.72,2.46.55,2Q16.58,37.6,27,34.08c.42,1.08,1.28,2.21.06,3.13-.94.57-1.69-.7-2.67.38-.63,2.88.67,5.29,2.48,7.48C56,36.2,86.78,31.93,116.19,25a.17.17,0,0,1,.09.32C86.91,32.88,56.77,37.47,27.84,46.15c2.13,2.35,4.6,4.5,5.54,6.81A21.49,21.49,0,0,1,37,56.3c20.33-3.59,41.11-5.23,61.59-7.85,0,.08,0,.16,0,.25-20.13,2.89-40.46,5-60.42,8.7a4.46,4.46,0,0,0,2.26,1.19c-2.7.93-5.25.46-7.8-.11q-3.3.68-6.6,1.42a1.94,1.94,0,0,1,.34,1.21,4.84,4.84,0,0,1-2.49-.71l-3.45.83a8,8,0,0,0,3.3,3.23c-1.27,2.69,2.24,3,4.65,2.77-.28-.47-.89-1-.52-1.36,1.4-.57,2.65.35,3.89,1.42,4.89-1.12,9.81-2.15,14.71-3.2.68-.14,1,.91.29,1-4.66,1-9.32,2-14,3A5.7,5.7,0,0,0,35,69.55c-1.29,1.36.31,1.2.09,2.31-3.23,3-9.46,1.16-9.7,4.93a10.73,10.73,0,0,0,1.23.25c18.83-3.47,37.88-5.5,56.81-8.41,11.16-1.71,22.19-3.93,33.27-6.07,9.15-1.76,18.33-2.88,27.43-.32.07,0,0,.12,0,.11-11-2.23-22.14.18-33,2.44C100.57,67,90,68.81,79.3,70.42c-12.46,1.88-24.93,3.73-37.36,5.84a11.24,11.24,0,0,1,6.8,3.55c3.25.38,4.35-1.61,6.9-3.25,4.77-3.07,9.19-.2,14.44.15,4.54-3.63,10.06-7.24,13.73-5.84,2.49-1.87,8.75-3,11-1.19.39-2.15,6-1.65,8.23-.16-.92-1.93,3-1.21,4-.91-.38.41-1.07.77-.78,1.24,1.54-1.16,2.79.6,4.26.1s-.11-1.54,1.21-2.18c4.19.74,8.71-1.63,12.78.31,3.81-4.14,6.71.85,10.12.69-.15-.89.23-1.72,1.56-2.47,2.13,2.42,2.79,0,5,2.48.5-1.67.72-1.46,2.57-2.7,3.63,2,7.77-1.07,11.42.83,1.68-2.18,4.89-1.85,6.14,1,1.22.55,1.92-2,2.44-1.4-.17,1.68,1.54,1.28,2.54.91-.95-1-.92-1.3.13-1.3-.79-2-2,.37-2.83-1.27.57-.6,2.09-1.1.85-1.88-2.14-.58-4.8-.11-3.81,1.91-1.27-.43-2.8,1.72-3.9-.39,2.26-1.32,1-1.46.91-2.54,1.26-1.43,3.23.37,5.21.53,3.65-3.55,12.94,2.56,14.7-2.46-6.65-.51-14.74-2.4-20.59-2.76.49.14.92.43.43.72-3.9-.44-9.57-.63-12.5,0,.07,1,3.32-.18,3.13,1.63-1.61-1.66-.66.77-.78,1.24A18.66,18.66,0,0,0,142,61c.16-1.08-.6-2.26.32-3.26-2.49-1-6.62,0-8.54-1.18l3.49-.67c4.14-.22,8.27-.57,12.38-1.08,2.86.75,6.06.41,8.91,1.61,1.35-.95.43-2.14,1.63-3.12,3.41-.2,6.56,2.28,10.11.7-2.32-1.47-4.85-.87-7.28-1.35,1.06-.21,2.11-.44,3.16-.67.43.26.86.53,1.29.75l1.77-1.44c.14-.05.29-.09.42-.15.37,1.63,2.84,3.47,2.4,5,1.06-.83,2.27-.59,4-.26-.36,1.42,1.35,1,1.39,2.44,4.72-.44,9.35,1.92,13.42.79-.26-.09-.16-.71.08-1.07.5.54,1.15-.46,1.6.49,0,2.18-.61,7.34,2.59,6.84a7.83,7.83,0,0,1-.09-2.31c1,.47,2.2-.19,3.25.32-1.49-1.57-3.27-.21-4.72-2.11.74-1.49,2.68,1.16,2.38-.75-1.58.24-1.35-2.08.26-2.6-1.26-1.59-2.75-.95-4.06-2.06.44-.5.12-1.08.49-1.59,1,1.11,1.88,3,3.12,1.63-1.47-1.76-3.08-2.08-4.59-3.42-.5-.82,1.07-1.42.56-2.24-2.06-1.27-4.33-.48-6.37-2,3.1-2.2,8.63-1.16,12.36,1.25l-1.08.87c1.26,1,4-.13,4,2.71.72.44,1.68-1.42,2.38-.75,3.45,3.23,8.82,1.48,11.9,5.8.85-1.61,3.05-.3,2.53.92-1.26.57-2.31-.94-3.67.61,1.25,3.4,5.64,2.17,8.39,1.51-.15-1.72-2.84-.8-4.13-1.41.48-1.36.69-1.93,2.15-1.75-1.31-1.16-2.79-.66-4.07-2.05.89-1.26,1.5.32,2.31-.1-.2-1-2.05-.32-1.17-1.43,1.21,0,2.11,3,3.48,1.34-.26-1.27-2.26-.63-1.46-1.8,1.29.45,2.33,1,3-.67a3,3,0,0,1,1.83,1.49c1.81,0,1.28-2,2.14-1.75.31.21.59.7.95.42-1.19-3-5.64-.08-8-1.79.87.11,1.85-.92,2.8-1.69,1.45,1.92,3.24.46,4.91.17.4,2.3,2,2.84,2.15,4.81,1.14-1.12,2.77-.27,4.75-1.49-1.87-2.16-4.16,0-6-2.25,1.24-.39,2,0,2.15-1.75-.73-.34-1.57.39-2.24-.56,1.7-.61,3.18,1,4.71,2.12,2.11-1.39,3.91.28,5.86.59-1.52,2-3.89.71-3.58,2.92.68,0,2.91,1.07,2.4,2.22-.6.19-2.22-2.23-3.84-1.05,1.5,1.54,3.41,1.32,2.63,3.23-1.42,2.18-2.37-.35-3.74,1.26L233.55,62c8.71.57,18.14,2.73,28.33,2.54-4.09-2.85-8.83.67-12.81-3.27,1.67.43-.41-4.49,3.22-2.63-1.62,1.26-.07,1.23,0,3,1.53-1,2.82.33,4.33-.55-.94-2.74-4.15.12-4-2.7,5.52.63,10.86,3.12,16.23,5.25,4.14-2,10.66.69,15.48,2.88.18.67-1.33,1.18-.85,1.88,2.08.1,5.71,1.94,6.87.37-1.35-.77-2.65-1.95-4.07-2,.36-.3.19-.64.42-1,2.11-.25,4,2,6.15,1-.37-2.52-2.65-.47-4-2.7,5.28-.3,10.88,2.81,15.32,1.22-1,2.06,5.22,3.07,2.37,5.82.64,1.31,1.48.55,2.12,1.86,1.61-1-1.13-.68.19-2,1.15,1.67,2.46,1.68,3.77,1.7-.35-1.24-2.48-.83-1.75-2.15,1.33,0,4.43-.7,4.42,1.76-.6,1.13-2.51-.52-2.08,1.1,4.57.32,8.57,6.23,13.07,7.24,1.93,2.34,4,4.18,3.83,7.61,1.18-.87.42-1.93,1.92-2.76,1.12,2.17,2.25,1.82,2.83,1.27.41,1.76,2.24,2.05,3.64,3,.73,1.62-1.35,4.67.12,5.27,1-1.13,1.47-2.8,3.23-2.63.53-1.15-1.84-.76-1.11-2.09,1.92-1.13,4.59-1.49,5.21.53C348.24,89.64,344.46,87.88,345,87.4ZM259.54,39c.64,2.53,3.69,0,5.36,2.18C263.38,41.29,258.63,41.63,259.54,39Zm-2.43-.74.18.18a2.19,2.19,0,0,0-.78,1.24,13.52,13.52,0,0,1-1.88.21A3.32,3.32,0,0,0,257.11,38.27Zm-.93,4.67c1.07,1.31-.9,2.32,1.27,3.74-1.91.35-2.76-2.37-3.28-3.29C254.88,42.82,255.42,44,256.18,42.94Zm-3.38,1c-1.12,1.34-1.87-1-2.9-.62C248.47,42.82,253.39,41.91,252.8,43.91Zm-7.26-25.7c1-.5,1.9.7,2.83,1.27-1.23.17-2.56,1.43-3.61,0C245.27,19.39,246.76,19.2,245.54,18.21ZM30.66,34.28a4.91,4.91,0,0,1-1.55-.91l3.24-1.07C31.53,32.94,30.71,33.57,30.66,34.28ZM37.14,32c-1.38.44-2.78,1-4,.07l4-1.34A1.86,1.86,0,0,1,37.14,32Zm7.13-2.24a12.46,12.46,0,0,1-3.65-.18l3.69-1.2C44.69,28.86,45,29.36,44.27,29.74ZM46.41,28a2,2,0,0,1-1.5.17l1.6-.52A1.4,1.4,0,0,1,46.41,28ZM78,30c-3.43,1.06-7,1.25-10.46,2.3-.23.07-.33-.29-.1-.37,3.42-1.07,7-1.27,10.45-2.35C78.11,29.48,78.23,29.9,78,30ZM126.2,64.31c.12-1.39,1.2-.9,2.09-1.11C128.83,63.74,126.54,65.84,126.2,64.31ZM141,57.59c.63.54-1.48,2.28-1.72.81C139.43,57.09,140.12,58,141,57.59Zm30.55-6.44c1.62-.81,3,.28,4.56.46C175.84,52.08,172.77,52.32,171.56,51.15ZM179,52.23c-.28-.58.66-1,1.14-1.53.71.56,1.51.27,2.18,1.21A6.58,6.58,0,0,1,179,52.23Zm2.06-4.06c-.2-.28-.17-.48,0-.64l1.56-.33C182.87,48,181.35,48.1,181.07,48.17Zm7.12,4.33a7.8,7.8,0,0,1-4.92-.17c-.23-.46.52-.82.14-1.3A4.5,4.5,0,0,1,188.19,52.5Zm53.9-32.67A2,2,0,0,1,240.2,19C241.18,17.91,242.22,18.84,242.09,19.83Zm-4.81-4.43c-1.09,1-2.07,1-3,0C235.29,15.57,236.41,14.19,237.28,15.4Zm-3.32.32c-.78.12-1.57.4-2.24-.55C232.57,14.29,233.25,15.16,234,15.72Zm-3.19-1c.3.53-.68,1.35-1.07.88-.18.53.3,1.13-.49,1.59,2,1.21,4.06,1,6.15.95-.87,2-4.21.5-5.92.06a3,3,0,0,1-1.5,1.82C226.56,17.45,228.55,15.75,230.77,14.74Zm-32.59-2.63c1-.65,2,0,2.9.62C200.09,12.77,199.06,13.14,198.18,12.11Zm3.67,5.95c-.21-1.78,2-.62,2.73-1C204.81,18.73,202.51,18.34,201.85,18.06Zm7.25,32.28a12.57,12.57,0,0,1,5.5.89c-.22,1.17-.48.34-1.43,1.17C212,49.74,210.33,52.29,209.1,50.34ZM212,53.92c.48-1.25,3.94-1.07,4.19.76C214.75,55.14,213.32,55.24,212,53.92Zm7.74-34.37a6.12,6.12,0,0,0-4.71-2.12c.8-1.34,4.2-.47,5.85.59C220.23,18.5,220.52,19.08,219.77,19.55Zm1.86-2.11c-1.56.33-.4-1.76-.1-2.31-4.23,1.77-10.49-1.6-15.61-1.58.51-1.64,3.64-1.43,4.91.17,1.32-.72.56-1.58,1.79-1.47,2.18,1.34,6.11,2.41,7.45,1.09,2,.16,3.2,3.29,4.46,4.71C222.11,20.14,222.32,15.26,221.63,17.44Zm4.1,27.68c2.5-.85,4.81.16,7.16.72C230.47,45.91,228,46.56,225.73,45.12Zm7.55-3.18c2.91-1.65,5.4.8,8.23-.15C240.52,44.13,236,42.42,233.28,41.94Zm6.37,2c1.4-.81,1.34,1.22,1.76,2.15-.85.78-1.57.34-2.38.75C237.88,44.85,242.47,46.51,239.65,43.9Zm40.26,17.87c2.64-.15,5.13,1.2,7.67,2.09C284.82,63.58,281.62,63.39,279.91,61.77Z"/><path class="cls-1" d="M25.34,57.73a1.08,1.08,0,0,0,0,.88c1.28-.29,2.56-.56,3.84-.82A12.46,12.46,0,0,0,25.34,57.73Z"/><path class="cls-1" d="M156.17,57.15l.81.06A1.32,1.32,0,0,0,156.17,57.15Z"/><path class="cls-1" d="M169.43,69c2.37-1.74,6.13,0,7.36-1.23-2.49-.34-5-.16-7.52-.43.16.23.3.46-.07.65C169.5,68.36,169.26,68.66,169.43,69Z"/><path class="cls-1" d="M174.38,65.56c.74,2.42,4.39,1.29,6.44,1.31-.29-.47-.89-1-.52-1.37,1.6.53,5,.64,5.56.24C182.17,64.34,178.31,64.56,174.38,65.56Z"/><path class="cls-1" d="M179,62.41c-.31-.21-.59-.7-.94-.42,1.49,1.48,3.22.61,4.84.82-.62-.37-1.09-2.2-1.82-1.5.59.93-1.29.39-1.66.16.38-.4,1.07-.77.78-1.23-.57.33-1.08-.1-1.65.15C179.28,61.13,179.53,61.81,179,62.41Z"/><path class="cls-1" d="M181.2,76.11c3.64,4.08,8,1.22,11.87,2.84C188.81,76.23,186,75.68,181.2,76.11Z"/><path class="cls-1" d="M209,64.13a2.08,2.08,0,0,1,.44-.88s0,0,0-.06C209,63.47,208.87,63.79,209,64.13Z"/><path class="cls-1" d="M248.09,71c-8.62-2.57-17.58-1.67-26.05-5.59-3.72,2.08-10.61-4.51-12.58-2.2.28,2.55,3.36.22,4.7,2.06-.47,1.09-2.9.76-2.93,3a38.17,38.17,0,0,1,9.56,2.94c.75-.79.92-2,2.09-1.11-.07,2.23,2.27,1.6,3.48,1.34-.81,1.19-.07,1.71.09,2.31-.8.07-3.1-1.45-3,0,2,0,3.85.92,5.85.59-.2-.94-2.05-.32-1.16-1.43,1.71,0,6.5-2.62,8.39,1.51,1-1.41,3.48-1.33,4.65-3.81a8.88,8.88,0,0,1,5.14,1.18,2,2,0,0,0-.85,1.89C247.53,74.71,247.45,71.24,248.09,71ZM218,66.36c-1.12,1.36-1.9-.73-3,0-.41-1.77,1.43.55,2.08-1.11Z"/><path class="cls-1" d="M266.84,25.29c5.84,3.51,15.46-1.47,19,3.56l1.79-1.46c1.26.63,2.53,1,3.71,2.35,7.73-.59,14.8,5.31,22.18,8.16,1.3,3.54,5.68,3.19,6.27,6.21,0-6.71-14.88-9.5-17.78-15.92-.8,1.16-3.12.93-2.6-.27.33.37.69-.09.07-.64-.75.47-.47,1-1.14,1.52-1.46-2-5-.46-5.3-2.83.81-.51,1.37,1.51,2.24.55-2.07-1.84-5.63-.34-6.47-4.27-2.06-1.3-4.43.52-6.44-1.3a3.24,3.24,0,0,1-2.15,1.75c2,2.33,4.36.26,6.31,2.61-4.2-.76-8.41-1.29-12.52-2.91,1.77.25,1.93-.4,3.38-1-4.63.68-9.35-1.37-12.88-2.62.39,2.13-3.2-.33-2.79,1.69,2.08,1.1,4.29.82,6.3,2.61C267.11,23.78,267.39,24.58,266.84,25.29Zm22.9,1c-.87,1-1.43-1.06-2.25-.56C287.09,24.79,289.31,24.77,289.74,26.29Z"/><path class="cls-1" d="M204.27,72.2c-.49,0-2.49-.76-1.82-1.5,6.42-.72,12.42,2.75,18.86,1.9-3.53-.13-19.5-5.45-19.87-1.67C201.46,70.66,203,74.56,204.27,72.2Z"/><path class="cls-1" d="M249.49,31.09c1.56.34,1.92.17,3.1-1.33C254.24,29.34,249,30,249.49,31.09Z"/><path class="cls-1" d="M281.71,53.74c1.6.38,3.26.22,4.84.81C285.22,53.52,282.23,52,281.71,53.74Z"/><path class="cls-1" d="M309.89,41.47c.64.52,2.8,2.26,2.53.91C311.84,42.81,311.37,39.69,309.89,41.47Z"/><path class="cls-1" d="M331.84,48.61c-2.94-6.46-3.32.55,0,0Z"/><path class="cls-1" d="M271.41,100.34c.88,1.46,3.89,3.18,4.78,1.47C274.64,100.87,273.12,99.74,271.41,100.34Z"/></svg>