<svg id="Layer_2" data-name="Layer 2" xmlns="http://www.w3.org/2000/svg" viewBox="0 0 399.05 109.05"><defs><style>.cls-1{fill:#3adab2;fill-rule:evenodd;}</style></defs><title>Artboard 3</title><path class="cls-1" d="M383.24,37.38c.64-.49.95.11,1.12-.71C383.92,36.86,382.84,36.62,383.24,37.38Z"/><path class="cls-1" d="M387.05,68.64c-.66-.08-2.44-.11-2.9.54C384.81,69.26,386.59,69.29,387.05,68.64Z"/><path class="cls-1" d="M364.12,33.94l-1.93.36c.58.59,1.6.52,2,1.37C363.93,34.93,364.47,34.74,364.12,33.94Z"/><path class="cls-1" d="M360.57,43.09c-.32,0-1.75.29-.92.42C360,43.48,361.41,43.22,360.57,43.09Z"/><path class="cls-1" d="M364.08,82.15c-1.13.71-1.94-.62-2.46.21,1-.26.23.48.42.92C362.89,83,363.9,82.87,364.08,82.15Z"/><path class="cls-1" d="M351.65,47.5c.3,0,.2.24.09.48,1.07,0,1.61-.21,2.22-.16,0-.47-.37-.49-.42-.92C353,47.15,351.73,46.92,351.65,47.5Z"/><path class="cls-1" d="M359.92,83.92c-.5,0-.75.19-.64.62l.73-.13Z"/><path class="cls-1" d="M349.25,33.21c0-.57-.23-.9-.67-.88.14.45-.17.58-.06,1Z"/><path class="cls-1" d="M347.21,47.82c1.29-.12,3,.77,4.2-.28C350,47.8,348.22,47.07,347.21,47.82Z"/><path class="cls-1" d="M351.87,76.93c.36.91,1.47.72,1.81,1.66a6.49,6.49,0,0,0,.5-1.34C353.19,77.46,353,76.46,351.87,76.93Z"/><path class="cls-1" d="M351.49,80.24c3.37-.23.9-1.13,0,0Z"/><path class="cls-1" d="M344.75,45.28c-.31-.23-1.13.12-1.41.51C343.74,45.57,344.81,45.82,344.75,45.28Z"/><path class="cls-1" d="M331.24,35.8c-.73.36-.47-.73-1.1-.54a1.35,1.35,0,0,1-.06,1C330.45,36.54,331.33,36.42,331.24,35.8Z"/><path class="cls-1" d="M325.77,34.57c.44-.12.78-.31.88-.66C326.23,34,325.39,33.89,325.77,34.57Z"/><path class="cls-1" d="M300,30.12c-.93.16-1.62,0-2.17.41C298.18,31.27,300.29,30.34,300,30.12Z"/><path class="cls-1" d="M307.27,84.21c-.59.15-.82-.24-1.3-.25C305.91,84.59,307.19,84.79,307.27,84.21Z"/><path class="cls-1" d="M294.55,31.88c-.49-1.4,1.18.11,1.22-1.48l-1.93.36a1.35,1.35,0,0,1-.06,1A1.18,1.18,0,0,1,294.55,31.88Z"/><path class="cls-1" d="M270.1,30.68c-.24,0-.32-.15-.53-.16,0,1.2,2-.23.92-.42C270.49,30.38,270.29,30.53,270.1,30.68Z"/><path class="cls-1" d="M278.49,82.57c-.57.11-.79-.29-1.49,0C276.8,83.43,278.56,82.94,278.49,82.57Z"/><path class="cls-1" d="M249.47,17.77a1.18,1.18,0,0,1,.77.11c-.05-.24-.09-.48-.14-.72A.67.67,0,0,0,249.47,17.77Z"/><path class="cls-1" d="M248.72,29.9c.44.32,1.45.1,1.12-.7C249.24,29.27,248.66,29.37,248.72,29.9Z"/><path class="cls-1" d="M249.72,38c.2,0,.48-.08.53.15s.1.48.33.44l-.18-1C250.13,37.67,249.71,37.67,249.72,38Z"/><path class="cls-1" d="M248.4,29.46c-1.08.15-1.74-.06-2.37.69C247,30.25,248,30.55,248.4,29.46Z"/><path class="cls-1" d="M247.64,38.84c-.36-.73.73-.47.54-1.09-1.21-.06-1.73.33-3,0a1.45,1.45,0,0,1-.06,1C246.28,38.37,246.42,39.4,247.64,38.84Z"/><path class="cls-1" d="M246.53,46.3c-.45.13-.59-.18-1-.07C245.25,47,246.68,46.71,246.53,46.3Z"/><path class="cls-1" d="M239.66,30.84c.74-.3,3,.51,3.09-.83C241.93,30.3,240.06,29.21,239.66,30.84Z"/><path class="cls-1" d="M245.73,51.44c-1.12.07-1,.13-2.21.16C243.56,52.32,246.2,52,245.73,51.44Z"/><path class="cls-1" d="M241.77,38.19a.63.63,0,0,0,1.25,0C242.46,38.41,242.42,37.86,241.77,38.19Z"/><path class="cls-1" d="M240.83,33.12a1.18,1.18,0,0,1,.11-.77l-.73.13.09.49C240.54,32.92,240.63,33.11,240.83,33.12Z"/><path class="cls-1" d="M238.93,31c-.09-.28-.08-.69-.37-.68C238,31.07,238.25,30.9,238.93,31Z"/><path class="cls-1" d="M235.75,31.31c.14.29,1.35-.45,2.17-.4,0-.24-.09-.48-.13-.73C236.94,30.44,235.75,30.47,235.75,31.31Z"/><path class="cls-1" d="M238.15,38.86c-.14,0-.28.09-.2.29l.49-.09C239.3,38.2,236.64,38.32,238.15,38.86Z"/><path class="cls-1" d="M238.94,44.46l.48-.09C240.14,43.77,238.48,43.32,238.94,44.46Z"/><path class="cls-1" d="M230.89,30.72c-2.2.46-1,1.31,0,0Z"/><path class="cls-1" d="M231.67,44.31c0,.51-.86.39-.83.9.57-.37,1.29.52,1.45-.27C231.2,45.37,232.5,44.26,231.67,44.31Z"/><path class="cls-1" d="M230.59,42.51c-1.18-.41-1.22,1.13,0,0Z"/><path class="cls-1" d="M225.55,45c2,.3,3.07.45,4.85.59-.9-.91-.62-1.16-.16-2.21-.78-.2-1,.33-2.17.4.18.62.1,1.05-.55,1.1S225.69,43.84,225.55,45Z"/><path class="cls-1" d="M228.12,46.72c.54-.06.73-.34.59-.86C228,45.81,228.34,46.44,228.12,46.72Z"/><path class="cls-1" d="M216.37,39.91c.14.25,1.13.74,1.25,0-.15,0-.29,0-.29-.2.28-.09.7-.09.68-.37A1.21,1.21,0,0,0,216.37,39.91Z"/><path class="cls-1" d="M209.14,33.26c.18,1-1.7.66-1.93.36-.38,1-1.45.23-2,1.13.79,1.38,3.86-1,3.6.58,3.4-.6,5.59,1,7.62-.67-.57-1-.76.77-1.3-.26-.05-.46.77-.31.59-.86C213.19,34.15,212.39,32.57,209.14,33.26Z"/><path class="cls-1" d="M215.93,51c.57-.65,1.38-.52,1.84-.84-2,.16-3-1.17-4.75-1.37-.39.3-.56.9-1.16.47,0,.37.25.87-.07,1-.36-.87-1.68-2-2.15-.85a1.09,1.09,0,0,1,1.05.3c-1.79.21-2.48.67-3.71.19,1.5,1.67,4.91-.52,6.49,1.3,0-.29-.17-.68.1-.77C214.37,51.27,215.47,49.83,215.93,51Z"/><path class="cls-1" d="M211.18,38.88c.36.39.16,1.3,1,1.55,1.76-.27,1.51-.52,3.23-.1a1.71,1.71,0,0,0-2.16-.85C213.27,38.29,212.11,38.71,211.18,38.88Z"/><path class="cls-1" d="M212.43,28.15c-1.41.11-3.63-.22-4.67.37C209.1,28.36,212.09,28.88,212.43,28.15Z"/><path class="cls-1" d="M190.34,34.26a2.83,2.83,0,0,0,3.12.66c.45.38,1.12.42,1.43,1,2.55-.77,5.59.92,6.72-1.5-.29,0-.68.17-.77-.11.81-1.08,1.11.43,1.82.41.18-.09.48-.09.44-.33-4.59-1.83-13.63.06-17.86-.68-.37.38-1.39.31-1.6.8C186.56,34.45,187.52,34.73,190.34,34.26Z"/><path class="cls-1" d="M202.33,84c-.45.14-.59-.17-1-.06C201.05,84.66,202.48,84.39,202.33,84Z"/><path class="cls-1" d="M193,44.26l.48-.09a1.18,1.18,0,0,1,.11-.77c-.36.11-.91.08-.92.42C192.82,43.84,192.93,44,193,44.26Z"/><path class="cls-1" d="M199.34,84c0,.77.75.34.71,1.11l.48-.09c-.05-.24.14-.32.15-.53A6.47,6.47,0,0,0,199.34,84Z"/><path class="cls-1" d="M186.23,39c1.12.68,2-.09,3.08.42a.66.66,0,0,0,.34-.81C188.87,39.33,186.83,38.48,186.23,39Z"/><path class="cls-1" d="M188.78,50c-.8.15-2.26-.65-2.42.45C187.34,50.56,188.41,50.87,188.78,50Z"/><path class="cls-1" d="M180.92,40a4.63,4.63,0,0,1,1.88-.6c.66,1.65,2.35.05,3.28.14-.05-.24-.09-.48-.14-.72-1.9.34-4.49-.91-6.45.2A1.35,1.35,0,0,1,180.92,40Z"/><path class="cls-1" d="M180.23,44.38a6.67,6.67,0,0,0-1,2.68c1.53.37,2.38-.82,3-1.31-.32.06-.3-.38-.58-.39C180.91,46.07,180.47,44.91,180.23,44.38Z"/><path class="cls-1" d="M177.27,39.18c.58,0,1.13.32,1.16-.46C177.7,39,177.34,38.33,177.27,39.18Z"/><path class="cls-1" d="M178.52,49.94c-.57,0-.9.23-.88.66C178.15,51,178.38,50.4,178.52,49.94Z"/><path class="cls-1" d="M169.1,34.21c-.72.11-1.75-.91-2.26-.08.3,0,.58,0,.57.39C168,33.71,168.59,35.1,169.1,34.21Z"/><path class="cls-1" d="M162.4,45.19c0-.93-1.54-1.42-1.58-.46a1.6,1.6,0,0,0,1.25,0C162.16,44.93,162.16,45.23,162.4,45.19Z"/><path class="cls-1" d="M159.38,43.75c.69,0-1.17,1,0,1.25-.4-1.17.95.16.87-.66-.15,0-.29,0-.28-.19.29-.09.56-.18.39-.58C160.19,43.53,159.31,43.14,159.38,43.75Z"/><path class="cls-1" d="M138.94,49.3c.44-.12.77-.31.87-.66C139.3,48.27,139.08,48.84,138.94,49.3Z"/><path class="cls-1" d="M142.19,85.66c-.31.06-.29-.38-.57-.39-.05.53-1.17-.71-.87.66C141.38,85.46,142.09,86.36,142.19,85.66Z"/><path class="cls-1" d="M114.38,42.12c-.7-.85,1.84-.52.83-.9-.77.38-1.69-.58-2,.12C113.7,41.48,113.79,42.15,114.38,42.12Z"/><path class="cls-1" d="M113.61,42c0,.32-.39.3-.4.57.31,0,.39.25.77.11C113.89,42.42,113.9,42,113.61,42Z"/><path class="cls-1" d="M111.55,44.4c-.51,0-.59-.57-1.1-.55.31.46-1.63.37-.63.62C111,44.77,110.76,45,111.55,44.4Z"/><path class="cls-1" d="M116.4,84c-.82.36-1.57-.43-1.64.55C115.23,84.28,116.4,84.52,116.4,84Z"/><path class="cls-1" d="M113.87,82.43c.32.57,1.74,1.13,2.11.61A5.05,5.05,0,0,0,113.87,82.43Z"/><path class="cls-1" d="M101.52,45.51c0,.65.62.53,1.1.55C102.57,45.41,102,45.53,101.52,45.51Z"/><path class="cls-1" d="M91.6,76.83c-.61.08-.84-.32-.92.42C91.06,77.5,91.64,77.4,91.6,76.83Z"/><path class="cls-1" d="M92.51,84.4c.21.53-1.42-.31-1.41.51C91.73,84.69,93.37,85.14,92.51,84.4Z"/><path class="cls-1" d="M84.34,51.2c.08-.57-1.07-.83-1-.3C83.67,51,84,51.14,84.34,51.2Z"/><path class="cls-1" d="M77.84,61.9c.8-.32,1.66.83,2.21-.16C79.09,62.3,78.4,60.9,77.84,61.9Z"/><path class="cls-1" d="M77.24,49.27c-.46.06-.32-.76-.86-.59C76.24,49.34,77.15,50,77.24,49.27Z"/><path class="cls-1" d="M79.85,83.51c-.66-.08-2.44-.11-2.89.53,1.22-.25,1.54.82,2.83.48C79.81,84.17,80.05,84,79.85,83.51Z"/><path class="cls-1" d="M71.26,64.12c-.78.11-.89-.76-1.63-.7C69,64.16,71,64.7,71.26,64.12Z"/><path class="cls-1" d="M73,77.78c-.64.12-.66-.67-1.34-.5C71.54,78.15,72.88,78.38,73,77.78Z"/><path class="cls-1" d="M71.46,77.32c-.39-.14-1,0-.9-.83-1.08.32-2.15.75-2.79-.23-1,1-2.63-.65-3.67.43,2.22,1.15,5.12.75,7.1,1.93C70.85,77.89,71.44,77.8,71.46,77.32Z"/><path class="cls-1" d="M64.42,63.64c.81-.38,2.06,1.26,2.22-.16C66.11,63.42,64.82,62.89,64.42,63.64Z"/><path class="cls-1" d="M58.51,62.74a15.94,15.94,0,0,0,2.36.56l-.18-1C59.76,62.5,59.07,62.33,58.51,62.74Z"/><path class="cls-1" d="M56,61.22c-.5.28-1.28.38-1.31,1,.29.22,1.48.66,1.73-.07C56,62.16,56.07,61.59,56,61.22Z"/><path class="cls-1" d="M48.84,61.79c0-.24-.09-.48-.13-.72l-.48.09c0,.24.09.48.13.72Z"/><path class="cls-1" d="M35.59,52.27c.54-.43,1.13.52,1.2-.23C36.62,51.93,35.54,51.69,35.59,52.27Z"/><path class="cls-1" d="M32.55,52.08c.41-.22,1.14.52,1.21-.22C33.59,51.74,32.51,51.5,32.55,52.08Z"/><path class="cls-1" d="M27.53,70.75c-.57.37-1.29-.52-1.45.27,1.36-.5.25,1.44,1.19,1C27.48,71.81,27,71.22,27.53,70.75Z"/><path class="cls-1" d="M15.54,60c.15-.77-1.21-.85-1.3-.26C14.72,59.75,14.81,60.34,15.54,60Z"/><path class="cls-1" d="M14.23,61c.66-.5,1.72.44,1.4-.51C15.07,60.46,14.22,60.16,14.23,61Z"/><path class="cls-1" d="M7.85,58.92c.75-.12,1,.25,1.45-.27C9.09,58.49,7.85,58.36,7.85,58.92Z"/><path class="cls-1" d="M7.94,70.14c-1.2-1-1,1,0,0Z"/><path class="cls-1" d="M374,72.56c.5-.64,1.61-.86,1.66-1.81,1.85.28,3.41-.27,5.4-.5,0-.91-1.2-.09-1.38-.74.94-.46.8-.71,1.69-.32-.6-1.71-2.4.73-4.05-.25-.49-1.45,1.2-2.31,2.39-1.94,0-2.3,2.2-1.54,3.84-2.21a1.74,1.74,0,0,1-.82-.35,32.72,32.72,0,0,0,10-1.36c-.95-.12-1.46.1-2.25-1.33,1.77-1.21,4.55-.06,5.86-2.08-1.12.12-1.93.23-3.66.43.43-.63-.43-.94-.36-1.93,2-.8,2.75-.13,4-1.49-.15,0-.3,0-.29-.2.14,0,.28-.09.2-.28-.81,0-1.1.37-1.65.55,0-.78-.48-.93-.95-1.07-1.35.35-3,1.56-5.22,1.47-.14-.31-.43-.4-.42-.92-.58.72-1.82-.7-2.13.64.39,0,.83-.18.82.35-.95,1.17-4.41,1.76-5,1.43a.9.9,0,0,1,1.36-.75c-.34-.8.08-1.07.22-1.54a1.6,1.6,0,0,1-1.39-.75c0,.84-1.89.94-2.17.41.07-.51.63-.69.78-1.15,1.22.39,3.39-.7,3.41.87,2.1.12,6.36-1.53,8.26-1.28,0,.24-.15.32-.16.52.81-.25.26-.81,1-.18,0-.77-.41-.83-.51-1.4-.47,0-.48.37-.92.42,0-.77-.41-.83-.51-1.4a1.83,1.83,0,0,0,.85-2.16c-.39.49-2,.12-3.43.39.09,1.05-2.15.86-2-.12-1.33.62-3.14.93-4.45,1.57,0-1.16-1.21-.7-1.52-1.46-.07-.4.64-.26.63-.62-.32-.77-1.93.35-2.11-.61,2.49-.34,7.56-1.42,10.23-1.4-.22.93-1.33,0-1.84.84,1.24.29,5.2-.64,4.32-2.3,0,.42-1-.41-.95-1.07a4.46,4.46,0,0,0-3.25,1.35c-.32-.45-.67-.86-1-1.31-2.23.79-2.58,1.53-4.74,1.38-.18.6.26.69-.54,1.1-3.07-1.38,1.87-3.12,2.94-4.3-.68.08-1.1-.23-1.19-1,2-.25,6.33.2,5.71-1.56-5.22.85-9.26,2.47-13.85,2.08.43-.6-.25-.67-.27-1.45,1.27-.25,1.19-.12.59-.86,1.32-.63,3.73.43,4.24,0-.53-.68-2.88.06-2.44-1-.41.21-1.78.93-1.26,0-.82.17-1.09,2.13-2.08.89.12-.48.5-.78.5-1.34-2.58-.07-4.58-.77-7.69-1.07-3.79-1.94-10.23-.19-14.63-.78-.22.41,0,1.12-.79,1.14-.45,0-1,.07-1.3-.25-.05-.32.39-.3.4-.58-1.9.48-5.6-.61-6.85.78-1.4-.4-3.91-.93-5.16.45-4.15-1.54-7.68,1.43-11-1.21-1.89.47-3.42,2.17-4.87.66-3,1.74-5.76.8-9.94,1.6.09-1.16-.84-.83-.85-1.84.25,0,.26-.25.44-.33.69,0,1.12.41,1.83.41,3-1,8.9.22,10.09-2.13.49.41,0,.31.18,1,.29,0,.68-.17.77.1.69-.09.43-.83,1.07-1,1.72.73,3,.56,3.71-.19-.8,0-.89-.94-1.86-.65,0,.29.16.68-.11.77-.19-.55-.44-1-.95-1.07-1.35.08-3.73,1.21-4.44.32.53-1.47,4.6-.65,2.19-1.65-.46,0-.48.37-.92.42-1.24-3.67-5.31.45-7.4-.87-7.34,2.39-16.16,1.14-23.6,3.38,0-.24.14-.32.15-.53-2.17-.27-3.74,2-5.25,0-3.4,1.14-2.27.54-5.16.46a5.36,5.36,0,0,0-.21,1.54c1.4,0,2.95-.22,3.84.53,1.84-1.3,4.69-1.15,7.34-.86,0,.7-1.08.66-1.56,1a.68.68,0,0,0-.62-.64c-2.55,1.95-6.31-.36-9.32,2.24-.2-.7.8-1.08-.23-1.21-.16,3-6.37,2.27-6.26-.09a3.15,3.15,0,0,1-2.14,1.9c.49-.66-.11-1.08.21-1.54.93-.29,1.35.27,1.65-.55-.46,0-.3-.79-.66-.88-1.1.12-2.13,0-2.28,1.17.68-.38.52.46.66.88-1.38.41-1.52,1.23-2.63,2,1.14-.23,2.28-.47,2.79.23-1.33.7-2.49-.27-3.29,1.11,1.57.19,2.82,0,4.18,1,0-.3.24-.2.48-.09.31-.21-.14-.94.3-1.06.32,1.1.93-.14,1.19,1,.71-.75,2.42-.79,2.22-.16.71-.31.43-.25,1.21-.22a1.1,1.1,0,0,1,.3-1.06c2.86.67,7-1.89,9.05.32-2,.73-3,.56-5.55,1,0-.16.43-1-.18-1-.05,1-1.35,1.58-2.23,1.42,1.73,1,3.94-.28,6.17-.4,1.64-.09,3.2.64,4.47-.08,1.23.56,1.32-.13,3.19-.34.78,1.3,4,.76,4.68-.37.13.44-.18.58-.07,1,1.14-2.28,3.68-.64,5.71-1.56.3.27.39.85.9.83a2.2,2.2,0,0,1,3.14-.59c6-.66,8.31-.93,13.68-.29-2.38.41-4.41,1.83-6.8,1-1.6,1-4.61.77-6.08.88.17.53.11.91-.31,1-1.81.4-1.64-.59-3.21-1.15-.73,1,.11.92-.45,1.58-.31.05-.39-.25-.77-.1.16-.21.28-1.45-.27-1.45-.5.59.6.95-.26,1.29-.5-1.1-1.74,1.13-3.33.87a14.9,14.9,0,0,0-1-1.31c-.32-.18-1.28,1.76-1,.18-1.26,0-.65,1.24-1.47,1.52-3.24-.06-7.17-.88-10.8,1-.37-.19-.94-.06-1.1-.55-3.21,1.61-6.8,0-9.51,1.27a1.15,1.15,0,0,0-.37-.68c-3.26,2.73-8.32.21-11.64,1.91-2.68-.08-7.39,1.11-10.33,2.17-1.45-.51-4.17-.22-6-.13,0-.94-.49-1.12-1.19-1-.19,1,1.09-.15.9.83a20.53,20.53,0,0,1-6.7.25c.37-.55-.22-.41-.22-1.21.74-.34,2.14-.08,2.17-.4-1.73-.44-3.59.36-6.17.4,1.28,1,2.63-.5,3.56.33-.53.43.57.65-.06,1-4.71,0-10-.74-13.88.58-.05-.64-1,0-.9-.83-4.24,1-9.39.15-12.33-.45-1.54,2.64-5.14-.87-7.09.81-4.85-.28-9.67-.32-14.24-1.35a5.51,5.51,0,0,1-4.28-.2c-3.34.76-6.75.66-8.76-.12a5.64,5.64,0,0,1-2.42.45c0-.24-.09-.49-.13-.73.5-.25.89.54.68-.37-1-.09-.69.65-1.08,1-1-.65-2.76.76-3.4-.87-.2.95-1.8.31-2.53,1.22-.46-.57-1.07-.59-2-.13-.65-1.62-2.24-.41-2.81-1.72-.61,1.4-1.41.08-2.28,1.17-.05-.31.24-.39.1-.77-2.57,1.69-5.36-.62-8.67.37,0-.47-.37-.49-.42-.92-1.76,1.14-2.61,0-5,1.18,0-1.77-3.79-.71-5.58-.46-.09-.69-.79-.48-1.14-.79-2.68,1-9-1-12.24,0-2.32-.19-3.53-1-6.59-.53-.85-1.14-1.41-1.25-2.88-.71-9.15-1-18.85-1.53-28.19-2.51-.72.36-.92.93-1.88.6.64.8,2.22.24,2.92,1-.36.55.44,1.17,1,1.31.06-.85,1.91-.23,2.11.61-1.75.08-4.69.25-6.34-.57,0,.29.16.68-.11.77-2.17-.93-6.65-1.43-8.61-.65-.06-.53-.34-.73-.86-.59.56,1-1.25.27-1.08,1,1.33-.24,2.12,1.07,3.28.14a12.12,12.12,0,0,0,8.61.65c.46.16.67.66,1,1.07,1.44-.13,1.73-.49,2.55.28.35.73-.54.61-.55,1.1,1.46.23.41-1.27,1.51-1.28.37.92,3.74-.37,2.44,1,.73-.84,3.31-1,2.75,0,1.16.09.61-1,1.27-1.23,1,.58,2.16.44,2.68,1,1,.09.58-.73,1.36-.75.24.88,1.85-.23,1.92.89.77,0,.34-.75,1.11-.71.59.28,1.06.71,1.68.94,1.19-1.7,3.45,0,4.67-.37-.13-1.67-4.43-.71-2.86-2-.64-.2-2.26-.57-2.75,0,.52-.15.81.05.86.59a1.19,1.19,0,0,1-1.44.26c.31-.7.38-1.27-.52-1.4A1,1,0,0,1,108,50.8c-.72-.47-.67-.81,0-1.25-1.2.48-2.25-.41-2.94.3-.32-1.29-1-.09-1.28-1.51,2.76-.47,3.64.3,6-.11,2.47,1.48,5.82-.16,7.83,1.79-.52.21-1.45-.5-1.49,0,.51,0,.39.85.9.83.49-.53,2.23-.72,2.4.8-1-1-1.38.49-3,.06,3.92,1,8.48.94,12.11,2,0-.19-.08-.47.15-.53,2.82,1.34,5.94,0,8.77.12s5.57,1.81,8.7,1.14c.08-.94.88-.4.21-1.54.53,0,1.53-.6,1.74-.07s-1.4,0-.83.9c1.38,1.82,6.18-.11,7.38,2.12-2.28-.53-6.32,2.44-7.42.38-2-.35-3.28,0-4.66-.88-.49,0-.42.42-.63.62-.17-.78-2,0-1.43-1-1,1.09-1.53.58-2.86.78,0,.78.89.14.71,1.12a1.4,1.4,0,0,1-1.58-.45c.19-.78-.26-1.14-1.19-1-.62.34.65.44.66.88-1,1.13-3.59.43-4.24,0,.09-.82,1.32-.86,1.56-1-.2,0-.32-.14-.33-.43-.25,0-.33-.15-.53-.16-.87.47-3.66,2.23-5.51,1.28,0-.44.31-.63.88-.66.06-.82-.72-.39-.91-.84-.81-.06-.18.86-.83.91-1-.89-1.65-.93-3.32-.38,0,.36.25.87-.06,1-1.9.3-2.55-.68-3.91.47a1.18,1.18,0,0,0-.37-.68c-2,1.78-4.5-.37-6.28,1.17-.83-.52-1-1.81-2.2-1.09-.1-.75-.82-1.26-.36-1.93-1.83-.41-4-.33-5.67-1-4.12.52-8.84,1-11.89-.79-.76.2-1.1-.23-2,.12-1.69-1.25-3.46-.76-5.48-1.23-.41,2.63-3.51.37-4.74,1.38.58.2,2,.12,2.89.71a6.48,6.48,0,0,0-2.66.5,1.35,1.35,0,0,1-.56-1.65c-2.14-.15-2.87-.21-4.57-.4-.05.69.57.4.67.88-1,.61-1.64.33-2,1.13.65-.11,1.26.33.9.83-.58,0-1.08-.06-1.34-.5-.09-.48.6-.43.3-1.06-1.09.75-1.93-.63-3.51-.09,0,1.16.56-.45.81.34-.48,1.12-1.53.65-2.23,1.42a2.21,2.21,0,0,0-1.39-.74c-.39.17.11.3.14.72-2.7.75-5.21-.3-7.18.34.91.28,1.54,1.47,2.3.32,0,1.34,1.54.42,2,1.13.17.54.11.92-.3,1.06-1.24,0-3.62.66-3.17-.91-1.3,1.34-3.73,1-5.25,0-4.07.64-7-.46-10.3-.33a6.06,6.06,0,0,0-2.42-2.3c0,.6.53.45.46,1.17-.64,0-.9-.17-1.16.46.52-.14.8.06.86.59-.32.06-.14.46-.4.57-.21-.71-.9-.72-.84-1.84-1.43,1.45-1.72-.79-2.89.54-.22-1.64-1.7-.38-2.54-1.53-3.86,1.1-11.3-.71-15.94.22,3.75.41,6.7.43,10.15.86-.43,1.15-2.47.37-3,1.06,3.74,1.26,8.65,0,11.78,1.56a5,5,0,0,1,4,.25c-.6.32-.76,1,0,1.25.53-.74-.24-1.15.46-1.58,6.45-.64,9.34.61,14.06.38,1.66,1,3.74,0,5.28,1.52,1-.82,1.88.63,3.18-.34.42,1.62,1.83.19,3.5,1.35,2.08-1,4.45.32,6.41-.44,2.17,1.38,5.49.4,7.73,1.31,0-.35.48-.38.64-.62a10,10,0,0,0,7.4.87c.27,1.35,2.35.07,2.93,1-.6.48.6.91,0,1.25s-1.06-.51-1.49,0c.58,0,.34,1-.06,1-1-.55-1.48.54-2.09.88-2.86-.78-4.6,0-6.72-1.25-2.47.33-6.73.6-8.66-.88-1.7,1.2-3-.14-4.06,1,1.12.21,2.36.24,3.17.91.13-1.1,1.27-.29,1.54.21,1.53-.82,4.58.1,7.07.44-2.08,1.53-5.83,1-8,0-10.14.7-18.65-3-28.95-2.61.24,0,.38.37.09.49-.58,0-.68-.55-.43-.92a4.54,4.54,0,0,1-2.83-.48c.44-.48,1.87-1,1.31-1-2.44-.15-6.13-1.38-9-.32a10.83,10.83,0,0,1-2.39-.8c-3.31.92-8.32-.47-11.66.42-.59-.48-.48.11,0,.24a2.94,2.94,0,0,1,2.31.32c.77-.64,1.31-.13,2.41-.45,1.63,1.51,5.39-.08,6.62,2-.39.29-.6.71-1.07,1a65.69,65.69,0,0,0-8.09-.5c-3.47,1.87-7.26-1-11.37.61a1.36,1.36,0,0,0-1.15-.78c-2.57,1.6-3.87,0-5.18-1-.64.54,1,.95.26,1.45-.41-.62-1.82.21-1.91-.89.18-.65,1,.32,1.16-.47a3.39,3.39,0,0,0-1.63-.69,2.51,2.51,0,0,1-.75,2.64c2.44.48,3.48.31,5.51,1.47.94-.19,2.48-1.53,3.14-.58.08.89-.87,1.08-1.18,1.71-.27-.21-.9.09-.86-.59-.59,0-.44.54-1.16.47.21,1.06,1.83,1.25,1.42,2.23.95-.07.9.11,1.4-.51,4.31,1.69,9.9-.4,13.47,1.25,2.09-.73,5.89-.13,8.15-.52.33.54,1.09.46,1,1.56.46-1.33,2.84-1.2,3.67-.43-.31.55.08.3.18,1-.64,0-1,.28-.83.91,1.09-.76,1.13,1.6,1.82.41C38,71.82,41.54,73,41,72c.66-.41-.85-.15-.86-.59s.22-.83.83-.9c1.6,1,5.12-.72,6.09,1.86,1.58.4,3.59.63,4.46,1.17-.57.71-.07.94.12,2,3.06.56,5.78,1.61,9.08,1.81-.07-.4-.15-.81-.22-1.21a3.27,3.27,0,0,1-3.65-.82c-.78,0-2.24.37-2.88-.71,2,.57,4-.21,6.11.61-.38-1.49.73-.72,1.46-1.52,1.33,1.13,4.81-.87,4.89,2.09.19,0,.47-.08.52.15,1.18,0,.63-1.12,1.8-1.08.38.46.51,1.3,1,1.55a3.4,3.4,0,0,1,3,.19c-.15-.41.78-1,.72-.13.84.15,0-.82.88-.67.89.45,1.81-.33,1.48,1.23.91-.82,2.74.45,2.32-.93.58,0,1,.21,1.74-.08,0,.34-.26.53-.07,1,2.19.61,4,0,5.72,1.19-.78.58-.63,0-1.49,0,.73.72.51.72,0,1.49.39,0,.83-.19.82.35,2.71-.55,8-.66,10.78.24.67-.64-.35-1.22.46-1.58,1.33.21,3.46-.81,3.6.58.28-1.18,2.47.79,3.43-.39.61.44.86,1.4,1.76,1.42.53-.26.15-1.16.74-1.38.43.57,1.17-.11,1.3.26-.13.54-1.35.33-1.32,1a14.11,14.11,0,0,1,4.53.16.68.68,0,0,1,.35-.82c.59.47,1.68.22,2.15.85-.4.08,0,.7-.35.82-4.94,0-10.36.35-15.85.69-.59-.06-.8-.68-1.39-.74-.27.59-2,1.71-2.61.74-.35-.73,0-1,.26-1.3-.2,0-.48.08-.53-.15l-.48.09c-.07.37.51,1.19,0,1.25-.77,0-.63.55-1.4.51-.09-.28-.09-.69-.38-.68-.89,1.37-3-.25-4.34.81a1.15,1.15,0,0,0-.38-.68c-1.11.54-1.65.16-2.32.93-.36-.78-1,0-1.83-.41,0,.78.95.48.47,1.16a45.78,45.78,0,0,0,15.57-.89c.87.41,3.61.52,4-.24,1,.56,2.68,1,3.51.1.66.21-.3.81.42.92.1-1,.43-.64,1.17-.46,2.15-1.58,7.75-.3,10.14-1.89a12.78,12.78,0,0,1-3.41-.86c.41-.2-.15-.24-.33-.44a5.17,5.17,0,0,0,1.6-.8c3.93.43,9.43,0,12.89.85.08.82-1.48.53-1.51,1.28.29,0,.34.33.38.68,2.59-.53,4.17.37,5.63.7,0,.25.09.49.13.73-3.19-.18-5.57.36-8.52-.17,0-.31.24-.39.1-.77-.71.5-1.63.84-1.94,1.62,1.24-.39,2.18-.33,2.59.51,2.36-.93,7.51-.75,10.21-.15,1.37-.76,6.3-.63,6.88.72,1.89-1.06,6.83-.24,9.7-1.55.09.38.12.84.62.64,1.2-1.48,4.95-1.44,5.87.65,0-.25.27-.24.28.2.61-.07.68-.52,1.12-.71.36,1,.82,0,1.39.74a1.19,1.19,0,0,1,1.11-.7c1.08.93,3.35.81,5.25,0-.19,0-.47.08-.52-.15a5.09,5.09,0,0,0,2.17-.4c0,.46.37.48.42.92,1,.29,1.11-1,1.78.17.21-.42.12-1,.5-1.35.44.58,1.16.27,1.73-.07,0,.86,1,.62,1.92.89.15-.45.66-.67,1.07-.94.85.63,1.09.57,2,.12.15.66-.31.56.18,1A9.29,9.29,0,0,0,181,83.2c.85,1,2.16.35,3.65.83.28-.31.35-.75.83-.91.07,1,.61-.12,1-.18.46.51.59.36.46,1.16,1.84-.21,3.7-.08,4.74-1.38,1.57.32,2.51,1.51,3.56.34a2.93,2.93,0,0,0,3.47-.14,19.63,19.63,0,0,0,4.29.2c.22.13.6,1.51.85.59.07-2,2.48-.06,4.83-.9,1.75,1.22,3.69-.12,6.31.33.39-.29.49-.79,1.36-.75.11.83.49.29.95,1.07,1.67-.64,3.44.05,5.2-.22s3.61-1.79,3.76.05c.6-.07.67-.51,1.11-.7,3.26.94,7.15.41,11.07.44,3.32,0,9.76-.3,11.51.11,1.3.3,2.47-.45,3.91-.48.25,0,.68.58.86.59,1.36.11,3-.66,4.39-.56s1.82.82,2.64.75c1.31-.11,3-.9,3.86-.71.45-.15-.21-.38.15-.53,1.4.22,2.57.76,3.94,1,4.19-4.16,9.94.6,16.58-.84.4,1.47,2.23.48,3.08.43,2.36-.12,4,2.79,4.61.64.3.52,1.52,1.45,1.58.46-.38,0-.83.19-.81-.35.22-.63.95-.89,1.51-1.28.31.57,1.11.43,1.63.7.14-.4.22-.84.83-.91,1.36.78,3.32.68,4.75,1.37-.2.42-.69.65-.5,1.34a7.93,7.93,0,0,1,2.75,0c-.81-1.21,1.86-1.5,1-2.69,3.48-2.09,7.55-.79,11.45-2.87,3.41.25,8.44-1.5,11.39-1.87,3.53-1.14,9.59-1,13.42-1.74-.05.52-.64.61-.07,1,.72-.07.64-.68,1.36-.75a10.82,10.82,0,0,1,1.39.74c-.07.44-1.15.19-1.12.71.74.22,1.72-.19,1.56-1,.53.39.89-.09,1.44-.27.63.4-.06.82.47,1.16.72-.48,3.35-1,2.26.08.63-.47,1.35.43,1.45-.27a1.7,1.7,0,0,1-.81-.35c3.6.23,6.31-1.55,9.05.32-.26.66-.23,1.53-.9,1.91l-5.07.94c.09.18.26.25.53.16l1-.18c2.14-.43,6.13-.25,9.2-.21.1.57.55.63.51,1.4,4.21-.36,6.13-3.87,9.75-5.31C374.47,73.9,375.26,73.43,374,72.56Zm-98.8-30.35c.33-.7,1.76-.18,2.9-.54.57.21-1.41.42-1,1.19C276.23,43,276.36,41.7,275.24,42.21ZM309,35.93a42.5,42.5,0,0,1,7.9-.47A15.47,15.47,0,0,1,314,37.25C313.44,34.65,310.06,38,309,35.93Zm-19.88,5.94a5.44,5.44,0,0,0,4-.23c.05.53.34.73.85.59-1.43.76-3,.61-5,1.18C288.6,42.61,289,42.34,289.16,41.87Zm25.21-1.44c-.95,1.37-2,.73-3.48,1.4.36-1.95,4.3-1.66,5-1.42,0,.33-.35.45-.34.81C314.84,41.38,314.79,40.65,314.37,40.43ZM96.9,48.87c.74-.06.85.8,1.62.69C98.12,50.33,97.19,49.28,96.9,48.87Zm4,0c-1.59-1.28-4,.34-5.47-1.23,2.56-.24,5,.54,6.83.48C102.54,49.71,101.25,47.9,100.89,48.87Zm-68.28,6.2a1.61,1.61,0,0,1,1.25,0C34,55.83,32.65,55.83,32.61,55.07Zm76.87-.3c-.61-.13-2.2.23-1.63-.69C108.49,54.18,109.29,54,109.48,54.77ZM86,53.39c.14.38-.15.46-.11.77-.82-.14-1.82,0-2.16-.85C84.73,52.3,85.22,53.65,86,53.39Zm-.22,5.54c-5.21,1.25-9.49-.86-14.06-.39-1.34-1.39-5.87.47-5.85-1.91,1-.18,1.54.39,2.64.76.31-1,1.11-.67,1.79-1.08-.46-1-2-.34-2.29-1.58,1.53.34,4.18-.74,5.39.75a3.6,3.6,0,0,1,4.93,2.33c1.12.07,1.12-.63,1.84-.84-.73-.06-1-.77-1.28-1.51A42.14,42.14,0,0,1,94,57.4a2.14,2.14,0,0,1-2.31-.32c-3,.42-4.68-.5-7.23.09-.33-.72-2.37-1.25-2.55-.27a3.32,3.32,0,0,1,2.54,1.53c1.11-.71,2.89,0,3.84.53.69-.62,2.61-.86,2.59.52-.19.15-.39.29-.39.57C89.52,59,86.78,60.56,85.78,58.93Zm5.71,1.18c-.86-.26.77-1.12-.42-.92.65-.83,1.65.45,2.35.56.69-1.25,2.92-.41,3.76.06-.11.24-.21.48.09.48C95.76,61,94.24,59.75,91.49,60.11Zm5.93-.35c.44,0,.45-.39.92-.42a1.59,1.59,0,0,1,.47,1.16C98,60.71,97.59,60.43,97.42,59.76Zm3.8.29,1.21-.22.18,1C102.18,60.5,101.22,61,101.22,60.05Zm4.57.4c.85-.42.88.37,1.34.5C107,61.55,105.63,61.33,105.79,60.45Zm1.92.9c1.6-.77,3.08-1.09,4.72-.13C111.2,62.46,109.41,60.7,107.71,61.35Zm-94.35,3a7.47,7.47,0,0,1,2.75,0C15.76,64.76,13.68,65.07,13.36,64.39Zm3.32.38c1.06-1.32,3.14.31,4.77.11C20.6,67,18.05,64.54,16.68,64.77Zm26-2.82c.09.27,0,.44-.15.52-1.74.29-2.91-.26-4.33-.44C39.07,60.59,41.37,61.9,42.63,62Zm-7.44,1.63c0-.56-.23-.9-.66-.88.69-.52,1.64.06,3.23-.1,0,.48.1,1.06-.55,1.1C36.76,62.52,36.12,63.74,35.19,63.58Zm3.09-.82c1.8.64,4-.61,4.71,1.12C41.32,63.65,39,64.35,38.28,62.76ZM35.82,67c.71-.41.54-.12,1.45-.27C37.72,67.65,35.74,68,35.82,67ZM176.31,52.85c-1.77,1-4.54.4-6,.11a.92.92,0,0,1,.78-1.15C172.41,53.11,174.68,51.69,176.31,52.85ZM119.9,50.34c-.44,0-1.17.47-1.06-.3,1.22-.1,1.31-.14,2.22-.17-.63.21-.38,1-1,1.19C120,50.82,119.94,50.58,119.9,50.34Zm4.6,1.89c-.74.37-1.88-1.16-.47-1.16a4.21,4.21,0,0,1-2.44-1c2.37-.8,3.57.71,6.46-.2,0,.24.08.48.13.72.71-.82,1.84-.18,2.9-.54.35.31.4,1,1.14.79.14.71-1.38.72-1.3-.26-.86,1.05-2.7.4-3.42.38-.56.64,1,.84,1,1.56-.54-.54-1.81,0-2.35-.56,0-.29.4-.29.68-.38,0-.78-.89-.14-.71-1.11C125.6,51,123.8,50.77,124.5,52.23Zm5.2-.22a1.11,1.11,0,0,1-.68.38l-.18-1c.59-.15.82.24,1.3.25,0,.24.09.49.13.73C129.88,52.57,129.78,52.3,129.7,52Zm10-.1c.3.39,1,.13,1,1.07-2,.39-3.84-.47-6-.13-.53-.79.79-.3.59-.86-.36-.63-.58.47-1-.06.07-.72-.46-.56-.47-1.16,6-.15,10.95.24,15.84.55a4.24,4.24,0,0,1-4.39.57c-.81,1.07-1.35.8-2.65.49-.7.3.32.48.18,1C141.44,53.35,141,50.78,139.67,51.91Zm12.67-.35c-.41.56-2.14,1.06-2.5,0a27.83,27.83,0,0,1,8.85.6c.14.38-.15.46-.1.77C156.11,51.81,154,53.58,152.34,51.56Zm8.9.84c.32-.74,1.48-.14,2-.12A1.81,1.81,0,0,1,161.24,52.4Zm5.21-.22a1.6,1.6,0,0,1,1.25,0C167.81,52.58,166.21,53,166.45,52.18Zm2.46-.21c.42-.11.56.21,1,.07,0,.24.09.48.13.72l-1,.18Zm-8,2.49a8,8,0,0,1,2,.13c.35.73-.24.82-.26,1.3C162.19,55.21,161,55.62,160.88,54.46ZM94.66,67.77c0,.24.09.48.14.72a35.7,35.7,0,0,1-4.86-.6C91.61,66.88,92.6,68.05,94.66,67.77Zm-18,3.84C75.51,72,73.56,71,72,71,72.53,69.08,75.27,71.13,76.64,71.61Zm1.29-2.48c-.07-.54,1-.3,1.4-.51C79.56,69.7,78.59,68.64,77.93,69.13ZM142.3,56.67c.14.37-.15.46-.1.77-.21,0-.29-.2-.53-.16l-.09-.48ZM44,69.19c.54.13,1.57-.48,2.27.08C45.91,69.82,44,70.1,44,69.19Zm5.25,0c-.88-.14-1.36-.8-2.15-.84-1.52-.08-2,.62-3.43.38-.17-.76-1-.55-1.23-1.27,9.72.72,19.07,1.76,28.72,2.66.36,1.56-1.12-.24-.84.9-3.67,0-7.38-1.33-11.05-1.69-.64-.06-1.61.53-2.17.41a14.4,14.4,0,0,0-3.41-.87C52.24,68.83,50.45,69.42,49.22,69.21Zm2.56,3c-.42-.86.48-.8.22-1.54-.43-.61-2.18.72-2.11-.61,1.22,0,4.75-.32,6.39.81-.43,0-.42.27-.39.57-1-.69-1.71-.32-3.12-.67-.19.09-.2.29-.44.33-.09,1,1,.7.51,1.41C52.21,72.84,52.26,72.15,51.78,72.24Zm1.54.21c-.15-.59.24-.82.26-1.3.82.42.17.83,1.54.22.14.3.49.3.62.63-.16.74-.24,1.53-1.18,1.72C54.21,73.3,54.59,72.13,53.32,72.45Zm.21,2.46-1,.18-.09-.49,1-.17Zm16.86-.64c-.19-.33-.47-.54-.66-.87-.23,0-.13.33-.15.52-1.47-1.57-4.6.16-6.35-.56-.14-.06-.2-.66-.38-.68s-1.68,1.27-1.53-.22a.66.66,0,0,0,.63-.62,2.26,2.26,0,0,1,1.15.79c.52-.23-.37-.32.1-.77,4.51.44,7.53,1.81,13,1.34.11.42-.2.56-.06,1-.51-.81-.88.53-1.89.6C73.32,73.25,71.92,73.93,70.39,74.27Zm8.57.41c.23-.66.76-.58,1.41-.51C80.64,75.18,79.36,74.57,79,74.68Zm9.37-2c.47-.85,1.52,0,2.42-.45C90.63,73.59,89.11,72.35,88.33,72.69Zm26.74,2.77c-.64.33-.68-.22-1.25,0,.14-.39.71-.49,1.12-.7C115,75,115,75.22,115.07,75.46Zm-4.46-1.17.18,1c-.3-.58-1.5.14-1.63-.7A1.71,1.71,0,0,0,110.61,74.29Zm-1.78-.17a1.18,1.18,0,0,0-.11.77c-.91-.09-2,0-2.39-.8C107.31,73.89,107.62,74.67,108.83,74.12Zm-24.17,3c.62-.46,1.14-.34,1.8-1.09.47.24,1,.33,1.19,1,.44,0,.45-.39.92-.42-.21-.4-.31-1-.71-1.12,1-.54,2.71-1,3.36.63,2.85-1.81,4.16-.26,7.34-.87,0,.25.09.49.13.73-1.45-.39-3,1.35-3.76-.05-.8.77.2.49.27,1.45-.92,0-1,.6-1.88.6a1.13,1.13,0,0,1-.38-.68c-2,.36-3.14,1.34-5.37,2C87.4,77.42,85.76,77.66,84.66,77.12ZM98.93,76c2.11-.84,3.93.14,6.17-.39,0,.34-.56.31-.92.42,0,.65,1.31-.48,1.1.54-2,.2-2.91-.48-4.63.61C101,76,99.87,76,98.93,76Zm2.58,1.77c0-.21-.14-.21-.29-.19-.08-.2,0-.25.2-.29l.48-.09c0,.24.09.48.14.72C101.55,78.16,100.46,77.92,101.51,77.73Zm1.67.94-.27-1.45c.9.46.36,1.1,1.28,1.51A1.45,1.45,0,0,0,103.18,78.67Zm4.21-1.53a7.21,7.21,0,0,1,2.77-1.26c1.76.87,4.87-.39,6.92,1A28.79,28.79,0,0,1,107.39,77.14Zm14.19-1.64c0,.21-.2.29-.16.53l-.48.09c0-.29-.13-.42-.33-.44C120.55,75.05,121.09,75.94,121.58,75.5Zm.33.44a1.45,1.45,0,0,0,.06-1,26.88,26.88,0,0,1,3.36.62c.14.38-.15.46-.11.77A27.34,27.34,0,0,1,121.91,75.94Zm-13,2.67c.6.48.9-.51,1.5,0C110.71,79.51,108.81,79.33,108.91,78.61Zm11.49-1.39c0-.91,1.34.43.87-.66.43.3,1.39-.18,1.39.74C121.52,77.83,121.36,76.94,120.4,77.22ZM373.67,43.65c-.15-.51.05-.8.58-.85C374.4,43.31,374.2,43.6,373.67,43.65ZM183.46,72.5c0,1.37-1.38.83-.22,1.54-1,.26-1.94.38-2.11-.61C182.62,73.82,182.28,72.8,183.46,72.5ZM188,73.91c-.76.07-1.19-.32-1.83-.41-.31-.41,1.36-.41.4-.57a3.4,3.4,0,0,1,2.17-.41c0,.3-.31.69-.44.33C187.83,73,188.27,73.7,188,73.91ZM186,74c-.75-.14-1.75.1-2.5,0,.86-.25.35-1.44,1.46-1.52C184.5,73.63,185.71,73.15,186,74Zm-54.06,8.79c.81-.77,3.33-.52,5.16-.46C136.42,82.56,133.3,83.33,131.93,82.82Zm5.44-.26c.65-.92,1.78.06,2.7-.25C140,83.76,138.14,82.76,137.37,82.56Zm3.89.78c-.22-.77.41-1.41,1.08-1C142.59,83.12,142,83.25,141.26,83.34Zm54.26-9.09c-1.28-.35-3,0-3.6-.58-.56,1.22-2.41.13-3.47.15a9.1,9.1,0,0,1,2-1.61c.19.74.8.87,1.23,1.27,1.1-2,4.38.06,5.89-.6.49,1.37-1.45.25-1,1.19a.67.67,0,0,1-.62-.63A1.85,1.85,0,0,0,195.52,74.25Zm7.68-1.67c1.15.1,1.46-.4,2.75,0a2.89,2.89,0,0,1-1.8,1.08C203.81,73.32,203.27,73.29,203.2,72.58ZM172.62,80c0-.8-.6-.67-.23-1.21,1.54-.2,1.49.55,2.79.23.14.38-.15.46-.11.77A20.25,20.25,0,0,1,172.62,80Zm36.56-7.54c1.55,0,2.84-.69,4.18,1C211.93,73.16,210.11,73.46,209.18,72.47Zm11.42-.38ZM336.67,47.53c-1-.43-2.36.15-3.36-.62A3.1,3.1,0,0,0,333,45c-1.9.48-2.91.06-3.59-1.83.33-.5.85.07,1.69-.31-.06-1-1.69.22-1.67-.94,1.83-.78,3.11-.51,5.44-.26-.07.58-1.33.34-1.88.6.6,1.07,2.6.09,3.21,1.15.45-.11,0-.83.59-.86.23.24,2.22.28,1.1.55.65.7.9-.63,1.07-1,1,.9,2.77-.69,2.93,1,.45.07.87-.89,1.21-.22.27-.09.12-.48.1-.77a16.71,16.71,0,0,1,5.25,0c.2.49,0,.67-.06,1,1-.12.92-.46.54-1.1,1.68-.27,4.76-.53,6.31.33.23-.05.13-.33.15-.53.66.16.82,1.06,1.87.66-.06.6-.27,1.63.75,1.35.3-1.48-.81-1.36,1.57-2.29,0,.21-.19.29-.15.53,3.22,0,6.08-1.1,8.24,0,.08,0-.5.42-.39.57s2.25.5,1.71,1.18c-.29,0-.42.14-.44.33-3.17.17-7.29,2.14-10.36.68-.66,1.68-2.47.23-3.92,1.73,2.79,1.71,7.83-1.29,10.78.24-1.08-.11-2.48,1.2-3.42.39-3.07,2-6.6,1.22-10.25,2.65-2.75-.3-5.92.36-8.83.89C339.35,51.27,339,48.56,336.67,47.53ZM193.5,78.13c.29-1.21,1.65.14,2.89-.54.05.24.09.48.14.72C196,78.64,194.55,78,193.5,78.13Zm4,.25c-.41-.71-.23-.62,0-1.26.63.51,1.77.28,2.59.52C200.09,78.57,198.88,77.85,197.54,78.38Zm0,.24,1.21-.23C199.3,79.07,197.35,79.43,197.58,78.62ZM350.71,53.16c1.12.6-1.29,1.15-1.45.27C349.67,53.29,350.59,53.89,350.71,53.16Zm-2.18.41c0,.56-1.24.43-1.45.27C347.2,53.11,348.12,53.71,348.53,53.57ZM249.3,72l-.09-.48c.61.44.75-.36,1.26,0,.29.62-1.17,0-.88.66C249.39,72.28,249.35,72.15,249.3,72ZM207,80.86c-.27,0-.25-.45-.57-.39.1-.69.89.09,1.25,0C207.8,81.35,206.78,80.12,207,80.86ZM377.2,60c.31-.55-.08-.3-.18-1a1.13,1.13,0,0,0,.77.1C377.57,59.4,377.88,60,377.2,60Zm12-1.47a1.18,1.18,0,0,0,.11-.77c.94.45,1.47-.78,2.17-.4C391.64,58.34,389.93,58.83,389.16,58.51ZM267.71,82.32c.12-.64,1,.16,1.69-.31C269.59,83.09,268.12,82.29,267.71,82.32ZM379.7,64c.77-.53,1.6-.35,2.89-.53C382.3,64.86,380.89,64.17,379.7,64Z"/><path class="cls-1" d="M370.6,35.23c-.13,0-.31-.14,0-.24.12.36.4,0,.43-.33-.28,0-.33-.33-.37-.68-.76.61-1.18-.07-1.83-.41C368.76,33.77,369.89,36.15,370.6,35.23Z"/><path class="cls-1" d="M358.54,33.48c2.37-.58,6.66-.4,7.69,1.07,0-.7-.57-.4-.66-.88.24,0,.25-.25.43-.33.49.13,1.53,1,1.83.41-.33,0-.17-.2.08-.12-2.18-1.21-5.75-1.39-7.2-.56,0-.24-.09-.48-.14-.72-.76.62-1.1.09-2,.12C358.69,32.78,357.75,33.38,358.54,33.48Z"/><path class="cls-1" d="M316.19,27.36c.42,4,6.14-.53,9.27,1.52,3-.35,4.59.13,8.3-1,.72.31,1.13,1.59,1.3.26.62-.09.52.88,1.14.78,4.88-1,11.34-2.36,17.09.58.74-2.39,5.94.78,5-1.19,0,.29-.33.34-.68.38.06-1.08-1.26-2-2.62-2-.24.21.2.79-.55,1.1-.07-.46-.28-.48-.52-.15.18-.87-1.31-1.71-1-2.57,1.08.59,2.5,1.23,4,.25,1,.8,3.69,1.05,4.72-.13-3-.85-6.9-2.58-9.24,0-1.93-1.36-3.94,0-5.83-.42,0,.29.17.68-.1.77-3.53-.06-8.34,1.31-10.17.39-1.56.76-2.25.24-3.77,1.2-1.27-1.62-2.64-.21-4,0-2.79.42-5.33-.48-8.33-.45-.36.17-.06.79-.87.66C318.5,26.39,317.33,27.54,316.19,27.36Z"/><path class="cls-1" d="M345.26,46.69c-.38.5.46.68-.31,1.05a3.74,3.74,0,0,0-2.7.25c-.65-.21.3-.81-.42-.92-.06.38-.24.68-.3,1.06a15.25,15.25,0,0,0,4.19-.28C345.42,47.12,345.57,46.85,345.26,46.69Z"/><path class="cls-1" d="M332.34,36.35c.13-.65,1,.16,1.69-.32a1.18,1.18,0,0,1,.11-.77c-1,.13-1.57.2-2.24.24C332.06,35.76,331.91,36.48,332.34,36.35Z"/><path class="cls-1" d="M331.9,35.5c-.07-.12-.19-.16-.46,0Z"/><path class="cls-1" d="M331.07,30.84c.61-.07.69-.51.83-.91-.91-.19-3.35.35-2.85.78C329.36,30.75,330.76,30.11,331.07,30.84Z"/><path class="cls-1" d="M329.36,78.11c1.22.41,3.58-.27,5.36-.75a5.05,5.05,0,0,1-3-.18C331.59,78.49,329.25,77.46,329.36,78.11Z"/><path class="cls-1" d="M307,28.82c.43.9-2.63.89-3.73,1.44,4-.25,7.22-2,10.76-1.25,0,.34-.26.53-.06,1a3.33,3.33,0,0,0,1-2.44c-.17-.26-1.21.52-1.14-.78-1.19-.09-1.55.44-2.46.2C311.38,29.66,308.18,28.29,307,28.82Z"/><path class="cls-1" d="M299.61,84.64c1.07-.45,1.51,0,2.26.08C301.76,84,299.31,84,299.61,84.64Z"/><path class="cls-1" d="M263.13,33.47c.53-.31,1.87.21,1.2-.22C263.92,33,263.16,32.59,263.13,33.47Z"/><path class="cls-1" d="M258.36,44.1c1-.23,1.35.78,1.4,1,0-.07-.05-.28-.11-.72.34-.46,1.14.08,1.36-.76C260,44.15,258.82,43.34,258.36,44.1Z"/><path class="cls-1" d="M250.36,15.86c.14.61.6.76.95,1.07C251.48,16.18,251.23,15.81,250.36,15.86Z"/><path class="cls-1" d="M235.58,33.09c-2.57.18-9.59-2-10.65.48.93-.2,1.94.7,3.17.91,0-1.2,2.35-.1,3.07.43-.28-.62.42-.56.59-.86,0,.89,1.45-.26,1.39.74.85-.18.71-1,1.8-1.08,1.64.8,1.93.45,4.28.2-.15-.59-.26-1.16.26-1.29.18.57,1.07,1.68,1.63.69l-1,.18C239.43,31.47,237.45,33,235.58,33.09Z"/><path class="cls-1" d="M237.12,44.05c-.08.56,1.07.83,1,.3C237.45,44.79,237.84,43.6,237.12,44.05Z"/><path class="cls-1" d="M236.92,44.33c-1.3-.84-4.29-.81-4.1.77.45-.84.6,1.35,1.62.69C234.37,44.29,236.22,45,236.92,44.33Z"/><path class="cls-1" d="M235.12,38.67c-.57.09-1.55-.77-2,.12C233.65,39.43,235.05,39.86,235.12,38.67Z"/><path class="cls-1" d="M228.45,29.67c.18-.47,2.8,1.34,2.66-.49C230.79,29.28,227.78,29,228.45,29.67Z"/><path class="cls-1" d="M232.36,46.68c-.53-.25-1.5.14-1.43-1-.65,0-.53.62-.55,1.1C231.07,46.53,232.22,47.16,232.36,46.68Z"/><path class="cls-1" d="M223.06,32.92c1-.23.87.68,1.15.79-.09-.48.6-.43.3-1.06C224.11,33.33,222.67,32.23,223.06,32.92Z"/><path class="cls-1" d="M226.34,50.55a5.33,5.33,0,0,0-2.79-.23C224.36,51.32,225.55,50.36,226.34,50.55Z"/><polygon class="cls-1" points="219.54 43.57 219.54 43.57 219.54 43.56 219.54 43.57"/><path class="cls-1" d="M202.3,43.52l.18,1c1-.44,2.73-1.61,3.23-.1-.82-.07-.18.85-.83.9-.28-.41-1.27-.52-1.21.23.91-.23,1.8.44,2.66-.5.73.27,1.62.3,1.76,1.42-.35.07-2,.28-1.16.47,1.53,0,3,1.07,4.72-.13A3.16,3.16,0,0,0,216,46c0-.77-.41-.83-.51-1.4.79.18.86-.09,2-.12.06.77.77,1,.31,1.69.7,0,1.23-.13,1.35.5,0-.92,1.41,0,2.22-.16.14-1.65,2.87-.89,3.68-1.68-.2,0-.48.08-.53-.16.13,0,.24-.24,0-.24a4.4,4.4,0,0,1-3.38.63c0,.29.16.68-.11.77-.37-.42-1.26-.9-1.78-.17.07-.72-.46-.56-.47-1.16.81.18.68-.19,1.69-.31-.07.81.85.19,1.1.54-.16-.46.24-.54.35-.81-.92.42-1.14-.18-1.58-.46,0,.3,0,.59-.4.57,0-.24-.24-.25-.33-.43-1.26.85-2.52.63-3.9.47-.07-.4.64-.26.63-.62-.46-.68-2.83.22-2.2-1.09-.69,0-.4.58-.88.67-.42-.55,0-.78-.42-.92-.34,1.09-2,.26-2.8,1-.05-.24-.09-.49-.14-.73C207,43.22,206.2,43.7,202.3,43.52Zm11.51.11c.14.91-2.49,1.13-2.46.21A11.12,11.12,0,0,1,213.81,43.63Zm-3.47.15c.49.63-1,.9-.72.13Zm-3.23.1c.09.7-1,.79-1-.07C206.59,43.62,206.77,43.86,207.11,43.88Z"/><path class="cls-1" d="M220,43.23a3.09,3.09,0,0,1-.43.33C219.72,43.48,220,43.47,220,43.23Z"/><path class="cls-1" d="M220.71,43.1c.51.28.93.5,1.2-.22C221.37,43.3,220.64,42.55,220.71,43.1Z"/><path class="cls-1" d="M218.24,40.56c.54-.62,1.89-.91,2-1.37l-1.69.32C219,40.23,217.79,39.84,218.24,40.56Z"/><path class="cls-1" d="M210.56,27.5c.47,0,.49-.37.93-.42,0,.13.24.24.24,0-.36,0-.48-.32-.82-.34C211.07,27.15,210.68,27.23,210.56,27.5Z"/><path class="cls-1" d="M208.65,26.61c2.67.3-.16-.53,0,0Z"/><path class="cls-1" d="M207.91,38.73c.69.83-.09.8-.5,1.35,1.46-.28,2.34.19,3.42-.39-.68.07-.72-.8-1.19-1A1,1,0,0,1,207.91,38.73Z"/><path class="cls-1" d="M202.4,40c-.32-.41.57-.94-.18-1-.36.1-2.79-1-3.76,0,1-.15,2.28.6,3-.06C201.84,39.18,201.77,40.1,202.4,40Z"/><path class="cls-1" d="M199,47.14c-2.06-.67-1,.52,0,0Z"/><path class="cls-1" d="M191.93,30.71c-.19.65-2.83-.6-2.85.78,1.47-.7,2.72.52,3.66-.43-.29,0-.67.17-.77-.11C192.11,30.93,192.21,30.71,191.93,30.71Z"/><path class="cls-1" d="M193.26,39.21c-.38-.86-2-.34-2-.13A6,6,0,0,0,193.26,39.21Z"/><path class="cls-1" d="M194,44.56c-.07.17-2.76.33-2.11-.6-.44.13-2.41.28-1.64.55,2.21-.48,1.85,1.35,2.86,2C193,45.82,194.55,45.28,194,44.56Z"/><path class="cls-1" d="M174.56,32.69c1.33,1.22,5-.35,6,1.38-3.06,1-6.26-1-9.44.26,1.57,0,2.27.76,3.71-.19a1.35,1.35,0,0,1-.06,1c3.16-.38,5.24.15,8.15-.52.05-1.41,2.26-.52,2.34-2.18,1.87-.68,3.72.31,5.11-.7-1.14.23-2.28.47-2.79-.23.61-.08,1.18-.17,1.12-.71a3.4,3.4,0,0,0-2.76,1.26c-.68,0-1.05-.52-1.63-.69-.14.39-.22.83-.83.9,0,.49.42.42.62.64-1.15.37-3.34,1.65-3.71.19.5.32,1.34-.32,1.31-1a3.48,3.48,0,0,0-3.34.87c0-1-1.37,0-2-.12-.14-.71-.72-.8-1.19-1C175.69,32.62,174.36,32.13,174.56,32.69Z"/><path class="cls-1" d="M187.44,28.05c.57-.18,1.36.84,1.73-.07C188.28,28,188,27.43,187.44,28.05Z"/><path class="cls-1" d="M190.49,51.21c.69-.11,1.77-1,1-1.43-.13.29-1.7.14-1.65.55C190.27,50.31,190.46,50.65,190.49,51.21Z"/><path class="cls-1" d="M187,47.36c-.15-1.34-1,.27-1.39-.74.14,0,.24-.25,0-.25C185.1,47.2,186.43,47.2,187,47.36Z"/><path class="cls-1" d="M183.31,40.8a1.84,1.84,0,0,1,.82.35C186.65,40.8,184.36,40.27,183.31,40.8Z"/><path class="cls-1" d="M161.69,44.07a1.2,1.2,0,0,0,1.12-.7,2.74,2.74,0,0,1-2-.13C160.6,44.23,161.88,43.09,161.69,44.07Z"/><path class="cls-1" d="M139.42,38.47c-.23-.66,1,.44.92-.42-.51.2-1.44-.5-1.49,0C139.17,38,139.15,38.46,139.42,38.47Z"/><path class="cls-1" d="M139.67,45.17a1.15,1.15,0,0,0-.68.37,1.7,1.7,0,0,0-.62-.63C138.27,45.92,139.73,46,139.67,45.17Z"/><path class="cls-1" d="M117.68,43.76c.11-.3.81-.1.83-.9-1.05.65-2.77-.46-2.27-.08S117.32,43.25,117.68,43.76Z"/><path class="cls-1" d="M115.31,44.45c-.07-.44-.8-1.45-.91-.83C115,43.42,114.43,45,115.31,44.45Z"/><path class="cls-1" d="M120.36,79.73c-.4.22-1.13-.53-1.2.22C119.59,79.78,121,80.18,120.36,79.73Z"/><path class="cls-1" d="M89.46,46.5c-2.53-.62-1.71.85,0,0Z"/><path class="cls-1" d="M74.56,44.28a4.59,4.59,0,0,0-2.46.2C72.65,44.62,74.16,44.94,74.56,44.28Z"/><path class="cls-1" d="M74.74,56c-1,.2-1.29-.57-2.5,0,0,1,1.64,1.27,1.91.89C73.15,56.53,75.42,56.76,74.74,56Z"/><path class="cls-1" d="M74.53,81.75c.43.37,3.3,1.36,4,.24A10.24,10.24,0,0,1,74.53,81.75Z"/><path class="cls-1" d="M65.06,52.28c-2.75,0-6.28-1.08-8.28-.21.7,0,1.32.13,2,.13.16.33.37.35.14.72,3.21-.65,4.91,1.72,7.25,1.4a9.87,9.87,0,0,0,.17-1.78,1.3,1.3,0,0,1-2.17.41C64.53,52.41,65,53.14,65.06,52.28Z"/><path class="cls-1" d="M67.27,60.12c-.49,0-.42.41-.64.61-.13-.35-.4,0-.44.34a8,8,0,0,1,1.54.21c-.17-.4.24-.69-.13-.72,0,.15,0,.29-.2.28C67.36,60.6,67.31,60.36,67.27,60.12Z"/><path class="cls-1" d="M70.22,80.05c-.15,0-.29,0-.29-.2.29,0,.63.33.73-.13-.34,0-.53-.26-1-.06C69.54,80.08,70.32,80.62,70.22,80.05Z"/><path class="cls-1" d="M68.8,81.81c0,.15,0,.29-.2.29a1.59,1.59,0,0,0-1.93.36c1.09,0,1.57.17,2.26.08C68.76,82.14,69.18,81.85,68.8,81.81Z"/><path class="cls-1" d="M63.36,56.6c-2.57-.56-1.63.74,0,0Z"/><path class="cls-1" d="M47.7,54.26c-2.06-.66-1.05.52,0,0Z"/><path class="cls-1" d="M45.19,54.23c.05.24.09.48.14.72.27-.09.69-.08.68-.37-.15,0-.3,0-.29-.2.13,0,.24-.25,0-.24,0,.15,0,.29-.19.28C45.44,54.28,45.39,54.15,45.19,54.23Z"/><path class="cls-1" d="M30.76,57.47Z"/><path class="cls-1" d="M30.15,57.41l.61.06-.21,0Z"/><path class="cls-1" d="M30.15,57.41Z"/><path class="cls-1" d="M19.72,61c-.6-1.59-3-.21-3.52-.1C17.6,60.57,18.42,61.11,19.72,61Z"/><path class="cls-1" d="M19.29,70.78c.2,0,.32.15.34.44-.14,0-.24.24,0,.24.07-.75.8,0,1.21-.23-.18-.39.24-.68-.14-.72C20.78,71.21,19.44,69.82,19.29,70.78Z"/><path class="cls-1" d="M1.45,62.11c1-.23,1.33.52,2.3.32C3.42,61.88,1.81,61.6,1.45,62.11Z"/><path class="cls-1" d="M393.24,38.77c.4,1.64-1.08.85-1.84.84.76,1.51-1.21,1.14-1.67,1.81a15.6,15.6,0,0,0,6.22-.16c-1.08-.72,0-1.94-.82-3.09C394.34,38.26,394.18,38.79,393.24,38.77Z"/><path class="cls-1" d="M208.69,30.85c2.49-.71,3.72.74,5.78.17.88,1.43,2.08.73,3.45,1.11-.1-.77-.79-.69-.8-1.6-1.54.71-1.43-1-2.64-.76,0,.29.17.68-.1.77C212.79,29.39,209.71,30.13,208.69,30.85Z"/><path class="cls-1" d="M186.39,45.23a3,3,0,0,1,1.28,1.51c.3-.91,0-2,1.24-2.73-.67-.38-1.11.66-1.15-.78-1.59.27-3.53-.58-4.92.41,1.78-.47.12,2.08,1.75,2.67.23-.61.86-1,1.22-1.47-.4-.15,0-.38-.42-.92.59-.38,1.34-.44,1.58.45C186.29,44.33,186.6,45,186.39,45.23Z"/><path class="cls-1" d="M19.76,71.94c-.75,0-1.05-.72-1.67-.94.16.69-1.06,1.15-1.17.47.21-.42.59-.72.79-1.15-3,.28-5.35-.07-7.47.14,1.17.25,2.47.29,3.21,1.15.51-.87,1.78-.41,2.51,0,.11.57-.29.79,0,1.49C17.14,72.25,19.48,74,19.76,71.94Z"/><path class="cls-1" d="M111.25,48.11a2.42,2.42,0,0,0,.7,1.48,3.07,3.07,0,0,0,1.14.67,2.81,2.81,0,0,0,2-.26l.16-.07a2.41,2.41,0,0,0,1.24-1.79l.15-.28a2.2,2.2,0,0,0-.33-2.61,2.24,2.24,0,0,0-2.61-.33l-.28.15a2.38,2.38,0,0,0-1.79,1.24l-.07.16A2.91,2.91,0,0,0,111.25,48.11Z"/></svg>